<svg xmlns="http://www.w3.org/2000/svg" viewBox="0 0 1085 417" width="1085" height="417">
<path fill="#333333" fill-rule="evenodd" d="M29.11,414.95C23.89,414.14 23.55,414.06 23.12,413.53C22.88,413.25 22.42,413.02 22.08,413.02C21.21,413.02 17.33,410.89 16.38,409.88C15.94,409.42 15.36,409.05 15.09,409.05C14.42,409.05 8.48,402.92 8.16,401.90C8.02,401.45 7.77,401.09 7.59,401.09C7.42,401.09 7.17,400.72 7.02,400.27C6.88,399.83 6.38,398.96 5.92,398.34C5.45,397.73 5.06,396.98 5.06,396.69C5.06,396.40 4.82,395.85 4.53,395.46C4.24,395.08 4.00,394.34 3.99,393.84C3.98,393.33 3.78,392.72 3.54,392.48C3.30,392.23 2.94,390.86 2.75,389.42C2.28,385.98 2.29,29.36 2.76,25.96C2.94,24.62 3.29,23.33 3.53,23.09C3.78,22.84 3.98,22.25 3.98,21.77C3.98,21.30 4.21,20.48 4.49,19.95C4.78,19.42 5.10,18.74 5.21,18.45C6.37,15.34 11.10,9.08 13.59,7.35C18.37,4.03 19.44,3.37 20.98,2.76C21.87,2.40 23.06,1.88 23.63,1.60C24.19,1.32 25.19,1.08 25.84,1.08C26.50,1.09 27.24,0.84 27.49,0.54C27.89,0.06 62.43,0.00 334.43,0.00C606.39,0.00 640.99,0.06 641.47,0.54C641.77,0.84 642.63,1.09 643.39,1.08C644.17,1.08 644.96,1.32 645.21,1.63C645.46,1.93 645.96,2.17 646.32,2.17C646.68,2.17 647.84,2.62 648.90,3.18C652.40,5.02 652.21,4.89 656.62,8.46C657.82,9.44 661.43,13.96 661.98,15.19C662.11,15.49 662.63,16.45 663.12,17.33C663.62,18.20 664.02,19.12 664.02,19.36C664.02,19.60 664.25,19.99 664.52,20.22C664.80,20.45 665.12,21.16 665.23,21.80C665.34,22.44 665.59,23.94 665.79,25.14C665.99,26.33 666.33,27.96 666.54,28.75C666.82,29.76 666.91,41.04 666.83,66.00L666.73,101.81L656.42,101.81L646.12,101.81L645.94,64.92C645.77,30.44 645.71,27.94 645.11,26.65C644.36,25.05 641.72,22.06 641.05,22.06C640.80,22.06 640.40,21.82 640.15,21.52C639.90,21.22 639.33,20.98 638.88,20.98C638.43,20.98 637.60,20.73 637.03,20.44C636.11,19.96 601.26,19.90 334.72,19.89C57.61,19.89 33.31,19.94 31.65,20.48C30.65,20.80 29.59,21.20 29.29,21.37C29.00,21.54 28.24,21.94 27.62,22.25C26.15,23.00 25.29,23.98 24.01,26.37L22.97,28.33L22.97,207.82C22.97,350.93 23.06,387.40 23.42,387.76C23.67,388.01 23.87,388.47 23.87,388.78C23.87,389.59 28.12,393.59 29.76,394.33C31.04,394.90 49.87,394.94 334.64,394.93C600.94,394.92 638.25,394.85 638.86,394.39C639.25,394.09 639.82,393.86 640.14,393.86C640.46,393.86 641.61,392.92 642.70,391.78C646.26,388.05 645.93,392.21 646.03,349.73L646.12,312.30L656.52,312.20L666.91,312.11L666.91,348.96C666.91,381.51 666.85,385.99 666.35,387.39C666.03,388.26 665.86,389.49 665.96,390.12C666.06,390.79 665.93,391.53 665.63,391.93C665.35,392.29 665.12,392.97 665.12,393.44C665.11,393.90 664.88,394.72 664.61,395.25C664.34,395.77 663.75,396.94 663.29,397.83C660.17,404.03 655.82,408.45 649.37,412.00C648.38,412.55 647.30,413.00 646.98,413.01C646.65,413.02 646.18,413.27 645.94,413.57C645.69,413.86 644.97,414.11 644.34,414.11C643.71,414.11 643.03,414.26 642.84,414.44C642.66,414.62 641.61,414.88 640.51,415.02C639.42,415.17 502.14,415.32 335.45,415.37C77.45,415.44 31.88,415.38 29.11,414.95ZM958.96,331.45C958.36,331.18 957.47,330.95 956.98,330.94C955.56,330.92 952.41,329.15 950.47,327.29C948.35,325.25 946.12,321.88 946.12,320.72C946.12,320.25 945.85,319.49 945.53,319.03C945.02,318.31 944.93,317.09 944.93,311.21C944.93,305.34 945.02,304.12 945.53,303.40C945.85,302.94 946.12,302.25 946.12,301.87C946.12,299.96 951.49,292.95 952.95,292.95C953.24,292.95 953.73,292.74 954.05,292.48C955.32,291.44 957.54,291.04 962.26,291.02C965.57,291.00 967.37,291.15 968.07,291.48C968.63,291.75 969.66,292.23 970.35,292.55C972.11,293.36 975.54,296.83 976.28,298.56C976.63,299.35 977.14,300.46 977.43,301.03C977.71,301.59 977.95,302.69 977.95,303.47L977.95,304.88L974.51,304.88L971.08,304.88L971.08,303.77C971.08,301.82 969.14,299.03 966.76,297.56C965.72,296.91 964.95,296.79 962.03,296.79C959.11,296.79 958.35,296.91 957.31,297.56C955.77,298.51 954.35,300.02 953.65,301.45C953.36,302.05 952.84,303.08 952.51,303.74C951.67,305.41 951.61,317.38 952.44,318.47C952.73,318.85 952.97,319.47 952.98,319.84C952.99,320.21 953.65,321.31 954.46,322.27C957.43,325.81 962.27,326.89 966.40,324.92C968.53,323.90 969.99,322.73 969.99,322.05C969.99,321.81 970.23,321.41 970.53,321.16C970.83,320.91 971.08,320.33 971.08,319.86C971.08,318.46 972.44,317.85 975.29,317.98L977.77,318.09L977.88,319.44C977.94,320.25 977.76,321.12 977.43,321.60C977.12,322.04 976.86,322.68 976.86,323.02C976.86,323.36 975.58,324.94 974.00,326.53C971.21,329.35 968.69,330.92 966.96,330.93C966.54,330.93 965.73,331.17 965.16,331.47C963.88,332.14 960.43,332.13 958.96,331.45ZM998.56,331.47C998.06,331.18 997.13,330.94 996.47,330.94C995.82,330.93 994.65,330.52 993.86,330.02C993.07,329.52 992.22,329.12 991.96,329.12C991.27,329.12 986.99,324.68 986.99,323.97C986.99,323.64 986.83,323.27 986.63,323.15C986.18,322.87 984.82,319.94 984.82,319.26C984.82,318.99 984.63,318.58 984.39,318.35C984.10,318.05 983.97,315.87 983.97,311.21C983.97,306.56 984.10,304.38 984.39,304.08C984.63,303.85 984.82,303.31 984.82,302.89C984.82,302.47 985.06,301.81 985.35,301.43C985.64,301.04 985.89,300.54 985.89,300.31C985.91,299.66 988.79,295.52 989.65,294.91C991.76,293.40 994.44,291.87 994.95,291.87C995.27,291.87 995.71,291.68 995.93,291.46C996.18,291.21 998.16,291.05 1001.33,291.04C1006.31,291.02 1008.47,291.39 1009.80,292.48C1010.12,292.74 1010.56,292.95 1010.78,292.95C1011.79,292.95 1015.78,297.29 1016.98,299.69C1017.66,301.06 1018.38,302.50 1018.59,302.90C1019.45,304.56 1020.17,313.11 1019.57,314.60C1019.36,315.12 1019.12,316.35 1019.03,317.31C1018.95,318.28 1018.70,319.25 1018.49,319.46C1018.27,319.68 1018.09,320.21 1018.09,320.65C1018.09,321.08 1017.85,321.64 1017.55,321.88C1017.25,322.13 1017.01,322.61 1017.01,322.94C1017.01,323.88 1011.83,328.83 1009.70,329.91C1008.65,330.45 1007.30,330.91 1006.70,330.92C1006.10,330.94 1005.21,331.18 1004.71,331.47C1004.20,331.76 1002.85,331.98 1001.64,331.98C1000.42,331.98 999.07,331.76 998.56,331.47ZM929.52,331.03C927.78,330.81 926.98,329.69 926.96,327.47C926.95,325.83 927.09,325.51 928.32,324.31C929.44,323.21 929.96,322.97 931.13,322.98C932.84,322.99 934.63,324.36 935.20,326.11C935.63,327.43 935.15,329.52 934.22,330.34C933.55,330.93 931.30,331.26 929.52,331.03ZM1028.03,330.49C1027.93,330.23 1027.89,321.31 1027.94,310.67L1028.04,291.32L1030.96,291.22C1033.79,291.12 1033.89,291.14 1034.30,292.05C1034.54,292.56 1034.73,293.18 1034.73,293.42C1034.74,293.66 1034.89,294.09 1035.07,294.37C1035.33,294.79 1035.65,294.66 1036.74,293.70C1039.24,291.51 1040.85,291.05 1046.15,291.04C1051.76,291.02 1053.14,291.50 1055.87,294.41C1056.79,295.40 1057.64,296.20 1057.77,296.20C1057.89,296.20 1058.42,295.81 1058.93,295.32C1063.08,291.41 1064.00,291.06 1070.27,291.03C1073.63,291.02 1075.39,291.15 1075.68,291.44C1075.91,291.67 1076.37,291.87 1076.69,291.87C1077.51,291.87 1082.11,296.69 1082.11,297.54C1082.11,297.92 1082.27,298.40 1082.48,298.60C1082.76,298.88 1083.02,321.92 1082.84,330.49C1082.83,330.84 1082.02,330.93 1079.48,330.85L1076.14,330.74L1075.96,315.92C1075.76,299.46 1075.81,299.81 1073.29,297.89C1072.11,296.99 1071.78,296.93 1068.28,296.93C1066.13,296.93 1064.37,297.09 1064.15,297.31C1063.94,297.52 1063.24,297.97 1062.59,298.30C1061.93,298.65 1061.10,299.54 1060.68,300.36C1060.28,301.16 1059.72,302.24 1059.45,302.77C1059.06,303.53 1058.96,306.56 1058.96,317.33L1058.96,330.93L1055.52,330.93L1052.09,330.93L1052.09,316.71L1052.09,302.50L1051.09,300.54C1050.55,299.46 1049.72,298.39 1049.25,298.16C1048.79,297.92 1048.23,297.55 1048.01,297.33C1047.76,297.09 1046.10,296.93 1043.75,296.93C1040.10,296.93 1039.83,296.98 1038.49,297.95C1037.71,298.51 1036.63,299.56 1036.09,300.27L1035.10,301.57L1035.00,316.16L1034.91,330.74L1031.56,330.85C1029.08,330.93 1028.16,330.83 1028.03,330.49ZM1004.53,325.50C1004.65,325.30 1005.11,325.14 1005.56,325.14C1006.64,325.14 1010.46,321.25 1011.13,319.46C1011.42,318.71 1011.78,317.35 1011.94,316.46C1012.10,315.56 1012.44,313.89 1012.70,312.75C1013.10,311.02 1013.10,310.38 1012.69,308.95C1012.42,308.01 1012.12,306.67 1012.04,305.97C1011.66,302.97 1009.13,299.17 1006.52,297.68C1003.65,296.03 999.03,296.25 996.03,298.16C994.38,299.21 992.05,302.29 992.05,303.41C992.05,303.75 991.81,304.34 991.52,304.73C990.77,305.72 990.73,316.45 991.48,317.85C991.76,318.38 992.35,319.58 992.78,320.53C993.66,322.46 996.07,324.73 997.57,325.03C998.13,325.14 998.66,325.37 998.77,325.55C999.04,325.99 1004.26,325.94 1004.53,325.50ZM206.33,269.63C205.54,269.33 204.15,269.08 203.26,269.07C202.36,269.06 201.31,268.82 200.93,268.53C200.54,268.23 199.79,268.00 199.25,268.00C198.72,268.00 198.08,267.75 197.83,267.45C197.58,267.15 197.17,266.91 196.91,266.91C194.99,266.91 185.69,259.07 184.26,256.25C183.96,255.65 183.57,254.91 183.41,254.61C182.29,252.59 181.92,251.68 181.91,250.94C181.90,250.47 181.66,249.69 181.38,249.19C180.62,247.87 180.62,238.20 181.38,236.76C181.68,236.19 181.92,235.19 181.92,234.54C181.92,233.89 182.16,233.16 182.46,232.91C182.76,232.67 183.00,232.22 183.00,231.93C183.00,231.63 183.45,230.72 184.00,229.89C184.54,229.07 185.22,227.94 185.51,227.40C186.09,226.26 189.88,222.64 191.72,221.45C193.85,220.08 198.06,218.09 198.82,218.09C199.22,218.09 199.75,217.84 200.00,217.54C200.25,217.24 200.97,217.00 201.60,217.00C202.24,217.00 203.07,216.76 203.46,216.47C203.84,216.18 204.86,215.93 205.72,215.93C206.58,215.92 207.64,215.72 208.07,215.48C208.83,215.06 213.10,214.73 224.59,214.18L229.84,213.93L229.94,209.48C230.02,205.95 229.93,204.88 229.49,204.25C229.18,203.81 228.94,203.20 228.94,202.89C228.94,202.15 225.65,198.92 224.90,198.92C224.58,198.92 223.85,198.67 223.28,198.38C221.92,197.67 217.87,197.67 216.51,198.38C215.94,198.67 215.28,198.92 215.05,198.92C214.81,198.92 213.84,199.71 212.89,200.67C211.37,202.22 211.13,202.67 210.88,204.53C210.41,207.97 211.20,207.81 196.19,207.60L183.18,207.42L183.08,205.11C183.00,203.57 183.15,202.40 183.53,201.62C183.84,200.97 184.09,200.09 184.09,199.67C184.09,199.25 184.24,198.62 184.42,198.28C184.60,197.93 185.08,196.97 185.48,196.15C185.88,195.32 187.12,193.51 188.24,192.12C189.99,189.93 191.44,188.64 196.44,184.82C196.97,184.42 197.64,184.09 197.94,184.09C198.23,184.09 198.67,183.84 198.92,183.55C199.16,183.25 199.63,183.00 199.96,182.99C200.28,182.99 200.86,182.74 201.25,182.45C201.63,182.16 202.28,181.91 202.69,181.91C203.10,181.90 203.75,181.66 204.14,181.36C204.53,181.07 205.29,180.83 205.84,180.83C206.38,180.83 206.93,180.67 207.05,180.47C207.18,180.27 208.04,180.10 208.97,180.10C209.91,180.09 211.08,179.85 211.57,179.57C212.93,178.79 229.49,178.79 230.97,179.57C231.54,179.86 232.69,180.11 233.52,180.11C234.36,180.11 235.14,180.27 235.26,180.47C235.39,180.67 235.84,180.83 236.28,180.84C236.72,180.84 237.54,181.08 238.11,181.38C238.68,181.68 239.43,181.92 239.78,181.92C240.13,181.92 240.62,182.16 240.87,182.46C241.12,182.76 241.53,183.00 241.79,183.00C242.40,183.00 244.55,184.32 246.24,185.74C246.97,186.35 248.09,187.21 248.73,187.66C249.92,188.48 253.89,193.46 253.89,194.13C253.89,194.33 254.13,194.69 254.43,194.94C254.73,195.19 254.97,195.67 254.97,196.02C254.97,196.37 255.22,196.86 255.52,197.11C255.82,197.36 256.06,197.99 256.06,198.53C256.06,199.06 256.25,199.69 256.49,199.93C257.42,200.85 257.62,205.37 257.83,229.84C258.00,249.09 258.16,255.34 258.50,255.95C258.75,256.38 258.95,257.53 258.95,258.50C258.95,259.49 259.19,260.57 259.48,260.96C259.78,261.35 260.02,262.02 260.03,262.45C260.03,262.88 260.31,263.78 260.64,264.44C262.61,268.36 263.88,268.00 248.17,268.00L234.49,268.00L233.70,267.16C233.27,266.70 232.91,265.92 232.90,265.44C232.90,264.96 232.65,264.25 232.37,263.87C232.08,263.49 231.93,262.82 232.05,262.37C232.43,260.85 231.45,261.04 229.53,262.85C228.49,263.84 227.27,264.76 226.84,264.90C226.40,265.04 226.04,265.28 226.04,265.43C226.04,265.82 221.84,267.99 221.06,268.01C220.72,268.01 220.12,268.26 219.73,268.55C219.35,268.84 218.28,269.08 217.36,269.08C216.45,269.08 215.50,269.28 215.26,269.52C214.57,270.21 208.09,270.29 206.33,269.63ZM316.15,269.61C315.48,269.32 314.33,269.08 313.59,269.08C312.86,269.08 311.94,268.84 311.55,268.55C311.17,268.26 310.59,268.01 310.27,268.01C308.66,267.97 302.28,263.59 300.44,261.26C300.07,260.79 299.62,260.40 299.45,260.40C298.75,260.40 298.19,262.16 298.01,264.92L297.83,267.81L285.54,267.81L273.24,267.81L273.24,205.97L273.24,144.12L286.80,144.12L300.36,144.12L300.46,165.01C300.56,187.85 300.46,186.96 302.61,184.90C303.18,184.36 304.13,183.63 304.72,183.28C305.31,182.94 306.03,182.51 306.33,182.33C307.99,181.30 310.86,180.11 311.70,180.10C312.23,180.09 312.98,179.85 313.36,179.56C314.39,178.78 326.80,178.80 327.83,179.58C328.22,179.87 329.14,180.11 329.89,180.11C330.63,180.11 331.34,180.27 331.47,180.47C331.59,180.67 332.07,180.83 332.53,180.83C332.99,180.83 333.57,181.08 333.82,181.38C334.07,181.67 334.55,181.92 334.90,181.92C335.25,181.92 335.74,182.16 335.99,182.46C336.24,182.76 336.68,183.00 336.97,183.00C337.61,183.00 340.16,185.06 342.65,187.58C345.92,190.89 346.90,192.31 349.22,197.11C349.75,198.20 350.40,199.53 350.68,200.06C350.95,200.59 351.18,201.43 351.18,201.93C351.18,202.44 351.34,202.95 351.54,203.08C351.74,203.20 351.90,203.83 351.90,204.47C351.90,205.12 352.14,205.97 352.43,206.35C352.73,206.75 352.97,207.85 352.98,208.91C352.98,209.93 353.23,211.35 353.53,212.06C353.97,213.12 354.07,215.40 354.07,224.36C354.07,233.32 353.97,235.60 353.53,236.66C353.23,237.37 352.98,238.81 352.98,239.86C352.97,240.97 352.74,242.07 352.43,242.48C352.14,242.86 351.90,243.79 351.90,244.53C351.90,245.28 351.74,245.99 351.54,246.11C351.34,246.24 351.18,246.61 351.18,246.95C351.17,247.29 350.93,248.03 350.63,248.60C350.34,249.17 350.09,249.84 350.09,250.09C350.09,250.34 349.85,250.75 349.55,251.00C349.25,251.24 349.01,251.65 349.01,251.90C349.01,253.23 345.67,257.92 342.41,261.15C339.31,264.24 338.14,265.13 335.38,266.47C335.02,266.64 334.18,267.06 333.52,267.39C332.86,267.72 332.03,268.00 331.69,268.00C331.34,268.00 330.75,268.23 330.36,268.53C329.98,268.82 328.93,269.06 328.03,269.07C327.14,269.08 325.75,269.33 324.96,269.61C323.04,270.30 317.74,270.30 316.15,269.61ZM541.60,269.61C540.60,269.34 538.88,269.10 537.78,269.10C536.59,269.09 535.48,268.86 535.06,268.55C534.68,268.26 533.79,268.01 533.10,268.00C532.40,267.98 531.51,267.73 531.13,267.44C530.74,267.15 530.09,266.90 529.68,266.90C529.27,266.89 528.12,266.49 527.13,266.00C526.13,265.51 525.14,265.11 524.91,265.10C524.69,265.10 524.30,264.86 524.05,264.56C523.81,264.26 523.33,264.02 522.99,264.02C522.65,264.02 521.99,263.61 521.52,263.11C521.06,262.62 520.47,262.21 520.23,262.21C519.16,262.21 509.23,252.31 509.23,251.24C509.23,251.04 509.01,250.62 508.74,250.30C508.47,249.99 507.72,248.67 507.07,247.38C506.42,246.09 505.67,244.60 505.39,244.07C505.11,243.54 504.89,242.78 504.89,242.37C504.89,241.97 504.72,241.54 504.52,241.41C504.33,241.29 504.16,240.75 504.16,240.22C504.16,239.68 503.92,238.78 503.62,238.21C503.32,237.64 503.08,236.31 503.08,235.27C503.08,234.22 502.83,232.67 502.54,231.83C501.79,229.70 501.78,220.70 502.53,218.23C502.83,217.26 503.08,215.40 503.09,214.11C503.10,212.62 503.30,211.50 503.63,211.05C503.92,210.67 504.16,209.81 504.16,209.15C504.16,208.49 504.30,207.67 504.48,207.32C504.93,206.42 505.65,204.31 505.87,203.26C505.98,202.76 506.26,202.11 506.49,201.81C506.72,201.51 507.53,200.05 508.29,198.56C509.05,197.06 509.95,195.52 510.29,195.12C510.64,194.72 511.26,193.83 511.67,193.13C512.55,191.66 517.41,186.98 518.06,186.98C518.30,186.98 518.85,186.61 519.28,186.16C519.70,185.71 521.64,184.54 523.59,183.57C525.54,182.60 527.56,181.59 528.09,181.32C528.62,181.05 529.46,180.83 529.97,180.83C530.47,180.83 530.98,180.67 531.11,180.47C531.23,180.27 532.01,180.10 532.85,180.10C533.68,180.09 534.77,179.85 535.27,179.57C536.58,178.82 552.40,178.82 553.71,179.57C554.21,179.85 555.30,180.09 556.13,180.10C556.97,180.10 557.75,180.27 557.87,180.47C557.99,180.67 558.34,180.83 558.65,180.83C559.53,180.83 564.78,183.20 565.12,183.75C565.23,183.94 565.62,184.09 565.97,184.09C566.32,184.09 566.99,184.50 567.46,184.99C567.92,185.49 568.54,185.90 568.83,185.90C569.38,185.90 576.13,192.32 576.13,192.84C576.13,193.00 576.77,194.07 577.55,195.21C578.32,196.36 579.39,198.27 579.92,199.46C580.45,200.65 581.12,202.09 581.40,202.65C581.69,203.22 581.93,204.11 581.93,204.64C581.94,205.17 582.18,205.92 582.48,206.31C582.77,206.70 583.01,207.61 583.01,208.33C583.01,209.06 583.24,210.13 583.53,210.71C583.95,211.55 584.08,213.96 584.17,222.25L584.27,232.73L557.51,232.91L530.75,233.09L530.87,234.72C530.94,235.62 531.22,236.61 531.50,236.92C531.78,237.23 532.01,237.74 532.01,238.05C532.01,238.36 532.26,238.81 532.55,239.06C532.85,239.31 533.10,239.77 533.10,240.09C533.10,240.86 538.15,245.93 538.92,245.93C539.25,245.93 539.72,246.18 539.97,246.48C540.22,246.77 540.73,247.02 541.11,247.02C541.49,247.02 542.20,247.28 542.68,247.59C543.96,248.43 555.51,248.43 556.80,247.59C557.27,247.27 558.16,247.02 558.76,247.02C559.37,247.02 559.86,246.89 559.86,246.72C559.86,246.56 560.71,246.06 561.75,245.61C563.62,244.79 564.60,244.10 567.60,241.50C569.41,239.94 570.05,239.83 570.80,240.96C571.10,241.41 572.15,242.59 573.13,243.58C574.11,244.58 575.30,245.96 575.77,246.66C576.25,247.35 577.72,249.09 579.06,250.51C580.40,251.93 581.59,253.41 581.71,253.81C582.05,254.86 579.58,257.69 575.66,260.76C574.52,261.66 573.12,262.76 572.55,263.20C571.98,263.65 571.27,264.02 570.97,264.02C570.68,264.02 570.23,264.26 569.99,264.56C569.74,264.86 569.33,265.10 569.07,265.10C568.81,265.10 568.06,265.37 567.39,265.71C565.17,266.82 564.94,266.91 564.27,266.91C563.91,266.91 563.30,267.15 562.91,267.44C562.53,267.73 561.64,267.98 560.95,268.00C560.25,268.01 559.36,268.26 558.98,268.55C558.59,268.84 557.51,269.08 556.55,269.08C555.61,269.08 553.89,269.32 552.75,269.62C550.15,270.30 544.05,270.29 541.60,269.61ZM773.24,269.76C772.55,269.55 770.97,269.27 769.73,269.13C768.49,269.00 767.28,268.68 767.03,268.44C766.79,268.20 766.17,267.99 765.67,267.98C765.16,267.98 764.43,267.73 764.04,267.44C763.66,267.15 763.05,266.91 762.69,266.91C762.33,266.91 762.03,266.77 762.03,266.59C762.03,266.42 761.56,266.08 760.99,265.84C760.41,265.60 758.50,263.90 756.74,262.06C753.59,258.77 751.90,256.49 751.90,255.51C751.90,255.24 751.74,254.92 751.54,254.79C751.34,254.67 751.18,254.30 751.18,253.96C751.18,253.62 750.93,252.88 750.64,252.31C750.34,251.74 750.10,250.88 750.10,250.39C750.10,249.90 749.90,249.15 749.65,248.71C748.78,247.18 748.58,241.14 748.43,211.43C748.28,183.71 748.31,181.40 748.88,180.78C749.43,180.17 750.11,180.11 756.06,180.11C761.98,180.11 762.70,180.18 763.24,180.77C763.79,181.38 763.84,184.10 763.84,212.51C763.84,239.37 763.92,243.72 764.38,244.62C764.68,245.19 764.92,246.11 764.92,246.68C764.92,247.24 765.09,247.80 765.29,247.92C765.48,248.04 766.05,249.00 766.54,250.04C767.03,251.08 767.89,252.35 768.44,252.87C769.77,254.12 773.29,256.06 774.22,256.06C774.63,256.06 775.55,256.30 776.26,256.60C777.93,257.30 782.02,257.30 784.31,256.61C785.28,256.31 786.84,256.07 787.76,256.06C788.80,256.06 789.60,255.86 789.88,255.52C790.13,255.22 790.51,254.98 790.74,254.98C790.96,254.98 792.20,254.45 793.49,253.80C796.12,252.48 799.63,249.20 801.18,246.60L802.18,244.94L802.18,213.12C802.18,182.76 802.21,181.28 802.84,180.71C803.40,180.20 804.46,180.11 810.02,180.11C815.87,180.11 816.59,180.18 817.13,180.77C817.68,181.38 817.72,184.82 817.64,224.63L817.55,267.81L810.31,267.81L803.08,267.81L802.98,263.93C802.92,261.79 802.75,260.04 802.60,260.04C802.45,260.04 801.45,260.93 800.37,262.03C799.29,263.12 798.27,264.02 798.10,264.02C797.93,264.02 797.25,264.42 796.60,264.92C795.95,265.42 795.25,265.82 795.04,265.82C794.84,265.82 794.47,266.07 794.22,266.37C793.97,266.67 793.41,266.91 792.98,266.91C792.54,266.91 791.87,267.15 791.49,267.44C791.10,267.73 790.38,267.98 789.88,268.00C789.38,268.01 788.66,268.26 788.27,268.55C787.84,268.88 786.76,269.08 785.45,269.08C784.28,269.08 782.98,269.26 782.57,269.48C781.54,270.03 774.81,270.23 773.24,269.76ZM867.82,269.73C867.02,269.54 865.20,269.28 863.77,269.14C862.34,269.01 860.96,268.70 860.71,268.45C860.46,268.20 859.75,268.00 859.14,268.00C858.52,268.00 857.70,267.76 857.31,267.46C856.92,267.17 856.35,266.93 856.03,266.92C855.34,266.91 851.10,264.82 850.81,264.35C850.69,264.17 850.34,264.02 850.04,264.02C848.52,264.02 840.15,255.67 840.15,254.16C840.15,253.86 839.91,253.41 839.61,253.17C839.31,252.92 839.07,252.43 839.07,252.08C839.07,251.73 838.82,251.24 838.52,251.00C838.23,250.75 837.98,250.20 837.97,249.78C837.96,249.35 837.72,248.69 837.43,248.31C837.14,247.92 836.90,246.85 836.90,245.92C836.90,244.99 836.71,243.70 836.48,243.04C835.78,241.03 836.35,240.87 844.31,240.87C849.20,240.87 851.35,241.00 851.65,241.30C851.89,241.54 852.09,242.45 852.09,243.31C852.09,245.82 854.13,249.75 856.60,252.01C857.73,253.05 858.87,253.89 859.12,253.89C859.38,253.89 859.80,254.13 860.04,254.43C860.29,254.73 860.78,254.97 861.13,254.97C861.48,254.97 861.97,255.22 862.21,255.52C862.46,255.82 863.17,256.07 863.79,256.07C864.42,256.08 865.24,256.32 865.63,256.61C866.18,257.03 867.64,257.14 872.52,257.14C877.40,257.14 878.86,257.03 879.41,256.61C879.80,256.32 880.62,256.08 881.25,256.07C881.87,256.07 882.58,255.82 882.83,255.52C883.08,255.22 883.49,254.97 883.75,254.97C884.01,254.97 885.19,254.33 886.38,253.55C888.19,252.34 888.73,251.71 889.84,249.54C890.91,247.42 891.15,246.57 891.15,244.78C891.15,243.59 890.92,242.09 890.64,241.47C890.37,240.84 890.03,240.08 889.91,239.78C889.59,239.06 888.92,237.95 888.25,237.07C887.56,236.16 884.41,234.00 883.77,234.00C883.50,234.00 883.08,233.75 882.83,233.46C882.58,233.16 882.02,232.91 881.59,232.91C881.16,232.91 880.65,232.77 880.46,232.60C879.93,232.12 876.48,231.11 875.35,231.09C874.79,231.09 874.01,230.84 873.63,230.55C873.24,230.26 872.35,230.01 871.64,230.01C870.93,230.00 869.94,229.76 869.45,229.48C868.95,229.19 867.89,228.95 867.10,228.94C866.30,228.92 865.33,228.67 864.95,228.38C864.56,228.09 863.72,227.85 863.07,227.85C862.42,227.85 861.79,227.69 861.67,227.49C861.55,227.29 860.99,227.13 860.43,227.13C859.87,227.13 859.21,226.88 858.96,226.58C858.71,226.29 858.06,226.04 857.51,226.04C856.96,226.04 856.31,225.80 856.06,225.50C855.82,225.20 855.42,224.96 855.17,224.96C854.67,224.96 850.19,222.79 849.92,222.41C849.82,222.28 849.24,221.91 848.64,221.60C847.38,220.96 841.96,215.42 841.96,214.77C841.96,214.54 841.74,214.09 841.48,213.77C840.91,213.10 840.42,211.37 839.67,207.37C839.18,204.81 839.17,204.17 839.62,202.31C839.90,201.14 840.13,199.66 840.14,199.03C840.15,198.39 840.31,197.77 840.51,197.65C840.71,197.53 840.88,197.11 840.88,196.72C840.88,195.97 841.54,194.63 843.21,192.04C844.43,190.16 848.45,185.90 849.01,185.90C849.22,185.90 849.96,185.44 850.65,184.87C851.34,184.31 852.80,183.40 853.89,182.84C854.99,182.29 856.32,181.61 856.84,181.33C857.37,181.06 858.14,180.83 858.54,180.83C858.95,180.83 859.38,180.67 859.50,180.47C859.62,180.27 860.42,180.11 861.26,180.11C862.11,180.11 863.11,179.87 863.50,179.58C864.51,178.81 879.32,178.80 880.66,179.57C881.16,179.85 882.05,180.09 882.65,180.10C884.70,180.14 890.15,182.30 892.45,183.99C893.06,184.44 893.72,184.81 893.92,184.81C894.45,184.81 901.55,192.15 901.98,193.15C902.19,193.64 902.51,194.28 902.69,194.58C903.29,195.55 904.17,197.75 904.17,198.27C904.17,198.54 904.31,198.93 904.49,199.12C904.67,199.30 904.87,200.92 904.94,202.71L905.07,205.97L897.66,205.97L890.24,205.97L890.04,204.34C889.94,203.45 889.63,202.31 889.36,201.81C889.09,201.31 888.73,200.66 888.57,200.36C888.41,200.06 888.00,199.29 887.67,198.63C887.08,197.47 884.45,194.94 883.82,194.94C883.65,194.94 882.97,194.53 882.32,194.03C881.67,193.54 880.89,193.13 880.60,193.13C880.31,193.13 879.76,192.89 879.37,192.60C878.99,192.31 878.14,192.06 877.49,192.06C876.84,192.05 875.34,191.78 874.17,191.45C872.34,190.94 871.74,190.92 870.10,191.31C869.05,191.55 867.29,191.84 866.20,191.94C865.11,192.04 863.89,192.35 863.50,192.63C863.10,192.90 862.55,193.13 862.27,193.13C861.21,193.13 857.65,196.19 856.33,198.24C854.99,200.33 854.98,200.38 854.98,204.11C854.98,207.01 855.10,207.97 855.52,208.32C855.82,208.57 856.06,208.96 856.06,209.20C856.06,210.26 861.58,214.11 863.10,214.11C863.41,214.11 863.95,214.25 864.30,214.42C865.48,215.01 867.46,215.63 869.01,215.90C869.87,216.05 870.75,216.35 870.98,216.58C871.21,216.81 872.07,217.00 872.88,217.00C873.70,217.00 874.56,217.19 874.79,217.43C875.02,217.66 875.99,217.97 876.94,218.12C877.89,218.27 879.56,218.67 880.66,219.00C881.75,219.32 883.14,219.73 883.73,219.89C887.20,220.85 893.61,223.70 895.70,225.23C896.32,225.68 896.97,226.04 897.16,226.04C897.76,226.04 903.08,231.65 903.08,232.29C903.08,232.63 903.21,232.91 903.37,232.91C903.72,232.91 904.89,235.46 904.89,236.22C904.89,236.51 905.13,237.07 905.42,237.46C906.19,238.47 906.19,249.05 905.42,250.07C905.13,250.46 904.89,251.12 904.89,251.55C904.89,253.23 902.63,256.83 899.70,259.82C897.27,262.30 893.79,265.10 893.13,265.10C892.93,265.10 889.12,266.79 887.77,267.48C887.21,267.76 886.31,268.00 885.78,268.01C885.25,268.01 884.50,268.26 884.12,268.55C883.70,268.86 882.62,269.08 881.51,269.08C880.46,269.08 878.67,269.32 877.53,269.62C875.23,270.22 870.09,270.28 867.82,269.73ZM955.70,269.61C954.71,269.34 953.08,269.10 952.09,269.08C951.09,269.07 949.96,268.82 949.58,268.53C949.19,268.23 948.51,268.00 948.07,268.00C947.63,268.00 946.80,267.77 946.24,267.48C945.68,267.20 944.24,266.54 943.05,266.01C941.85,265.47 940.63,264.88 940.33,264.70C940.03,264.51 939.31,264.08 938.73,263.74C937.26,262.87 929.85,255.48 929.85,254.87C929.85,254.60 929.44,254.00 928.94,253.53C928.44,253.06 928.04,252.39 928.04,252.04C928.04,251.69 927.89,251.31 927.71,251.20C927.25,250.91 925.87,248.18 925.87,247.55C925.87,247.26 925.70,247.02 925.50,247.02C925.31,247.02 925.14,246.73 925.14,246.39C925.14,246.04 924.90,245.29 924.60,244.72C924.30,244.15 924.05,243.25 924.05,242.73C924.04,242.20 923.80,241.46 923.50,241.07C923.21,240.69 922.97,239.69 922.97,238.85C922.97,238.02 922.73,236.87 922.43,236.30C921.99,235.45 921.89,233.31 921.89,224.23C921.89,215.15 921.99,213.02 922.43,212.17C922.73,211.60 922.97,210.45 922.97,209.61C922.97,208.78 923.21,207.78 923.50,207.39C923.80,207.01 924.04,206.18 924.05,205.56C924.05,204.94 924.30,204.23 924.60,203.98C924.90,203.73 925.14,203.22 925.14,202.85C925.14,202.47 925.29,201.88 925.48,201.53C925.66,201.19 926.25,200.01 926.79,198.92C927.33,197.82 928.08,196.54 928.45,196.06C928.82,195.59 929.12,195.05 929.12,194.86C929.12,194.40 931.41,191.62 933.66,189.36C936.46,186.54 941.27,183.00 942.29,183.00C942.56,183.00 942.98,182.76 943.23,182.46C943.47,182.16 943.95,181.92 944.28,181.92C944.62,181.92 945.04,181.78 945.23,181.61C945.77,181.13 949.21,180.11 950.35,180.10C950.91,180.09 951.77,179.85 952.27,179.57C953.60,178.80 967.69,178.81 968.70,179.58C969.09,179.87 969.91,180.11 970.52,180.11C971.13,180.11 972.52,180.45 973.61,180.86C974.70,181.28 975.92,181.71 976.32,181.83C976.72,181.95 978.00,182.63 979.17,183.34C980.34,184.05 981.80,184.93 982.42,185.29C983.76,186.07 989.88,192.22 989.88,192.79C989.88,193.00 990.27,193.70 990.73,194.33C991.20,194.96 991.96,196.29 992.41,197.29C992.86,198.28 993.37,199.38 993.54,199.73C993.72,200.07 993.86,200.73 993.86,201.19C993.86,201.66 994.10,202.35 994.39,202.74C994.69,203.13 994.93,204.24 994.94,205.25C994.94,206.24 995.12,207.68 995.33,208.44C995.99,210.78 995.79,210.85 988.20,210.85L981.55,210.85L981.19,209.92C981.00,209.41 980.84,208.45 980.84,207.78C980.84,207.10 980.68,206.45 980.48,206.33C980.28,206.21 980.12,205.80 980.12,205.42C980.12,202.44 974.17,195.34 970.17,193.55C969.57,193.28 968.63,192.83 968.06,192.55C967.50,192.27 966.55,192.04 965.95,192.04C965.35,192.04 963.99,191.79 962.92,191.48C961.33,191.02 960.65,190.99 959.07,191.34C958.01,191.56 956.34,191.84 955.35,191.94C954.35,192.04 953.22,192.35 952.82,192.63C952.43,192.90 951.81,193.13 951.46,193.13C951.10,193.13 950.16,193.54 949.38,194.03C948.59,194.53 947.84,194.94 947.72,194.94C947.33,194.94 942.44,200.12 942.10,200.89C941.92,201.30 941.36,202.35 940.87,203.22C940.38,204.10 939.97,205.02 939.97,205.26C939.97,205.50 939.73,205.90 939.43,206.15C939.13,206.40 938.89,207.14 938.89,207.80C938.89,208.46 938.72,209.10 938.52,209.22C938.33,209.35 938.16,210.09 938.16,210.88C938.16,211.67 937.92,212.91 937.62,213.62C936.85,215.47 936.84,233.12 937.61,235.26C937.90,236.06 938.14,237.31 938.15,238.05C938.16,238.78 938.33,239.48 938.52,239.60C938.72,239.73 938.89,240.24 938.89,240.75C938.89,241.25 939.11,242.09 939.39,242.62C939.66,243.15 940.19,244.23 940.56,245.03C940.93,245.82 941.60,246.98 942.05,247.59C942.50,248.21 942.87,248.87 942.87,249.05C942.87,249.63 947.37,253.89 947.98,253.89C948.30,253.89 948.77,254.13 949.01,254.43C949.26,254.73 949.75,254.97 950.10,254.97C950.45,254.97 950.94,255.22 951.18,255.52C951.43,255.82 952.06,256.07 952.58,256.07C953.11,256.08 953.94,256.32 954.44,256.60C955.75,257.35 965.58,257.36 966.58,256.61C966.96,256.32 967.62,256.08 968.04,256.07C969.55,256.05 975.19,252.52 976.84,250.56C978.64,248.42 980.44,244.68 981.07,241.77L981.38,240.33L988.15,240.23C994.54,240.14 994.93,240.17 995.29,240.84C995.55,241.32 995.55,241.85 995.31,242.50C995.11,243.02 994.95,244.06 994.95,244.80C994.95,245.55 994.71,246.47 994.41,246.86C994.12,247.24 993.87,247.89 993.85,248.28C993.82,248.68 993.50,249.50 993.11,250.09C992.73,250.69 992.33,251.42 992.21,251.72C992.09,252.02 991.85,252.51 991.66,252.81C991.48,253.10 991.17,253.72 990.97,254.17C990.47,255.32 982.88,262.80 981.47,263.52C980.82,263.85 980.22,264.23 980.12,264.36C980.02,264.50 978.80,265.14 977.40,265.78C976.01,266.42 974.41,267.18 973.85,267.47C973.29,267.76 972.47,268.00 972.03,268.00C971.59,268.00 970.91,268.22 970.52,268.50C970.12,268.78 968.90,269.08 967.81,269.18C966.72,269.27 965.18,269.53 964.38,269.75C962.41,270.29 957.90,270.22 955.70,269.61ZM80.10,267.54C80.00,267.29 79.97,240.81 80.02,208.68L80.11,150.27L94.49,150.18L108.86,150.08L108.87,174.95C108.87,188.63 109.01,200.03 109.17,200.29C109.38,200.62 109.83,200.16 110.70,198.73C111.38,197.60 112.11,196.50 112.32,196.27C112.53,196.03 113.38,194.78 114.20,193.49C115.03,192.20 116.04,190.65 116.45,190.06C116.86,189.46 117.60,188.40 118.08,187.71C118.56,187.01 119.27,185.87 119.66,185.17C120.04,184.48 120.70,183.60 121.12,183.22C121.54,182.84 121.88,182.37 121.88,182.19C121.88,182.00 122.37,181.23 122.97,180.47C123.56,179.72 124.05,178.98 124.05,178.84C124.05,178.70 124.54,178.02 125.14,177.34C125.73,176.66 126.22,175.89 126.22,175.62C126.22,175.35 126.48,174.92 126.80,174.65C127.12,174.39 127.92,173.35 128.58,172.35C129.24,171.35 130.77,169.14 131.98,167.45C133.19,165.76 134.41,163.89 134.69,163.29C134.97,162.70 135.62,161.81 136.14,161.33C136.65,160.85 137.07,160.27 137.07,160.05C137.07,159.83 137.55,159.09 138.14,158.40C138.73,157.71 139.22,156.97 139.23,156.75C139.24,156.53 139.58,156.04 140.00,155.66C140.42,155.29 141.01,154.49 141.32,153.89C141.63,153.29 142.38,152.19 142.97,151.45L144.06,150.09L161.30,150.09C170.79,150.09 178.65,150.19 178.77,150.32C179.01,150.55 178.42,151.40 176.04,154.29C175.29,155.19 174.45,156.37 174.17,156.90C173.90,157.43 173.23,158.27 172.70,158.77C172.16,159.27 171.43,160.25 171.07,160.94C170.71,161.64 170.06,162.53 169.62,162.93C169.17,163.33 168.26,164.47 167.59,165.46C166.92,166.46 165.56,168.25 164.56,169.44C163.56,170.63 162.17,172.42 161.47,173.42C160.07,175.41 158.40,177.63 156.42,180.11C154.39,182.65 152.72,184.86 151.64,186.44C151.09,187.23 150.37,188.09 150.03,188.34C149.70,188.59 149.06,189.40 148.61,190.15C148.15,190.89 147.16,192.22 146.41,193.09C145.65,193.96 145.03,194.87 145.03,195.10C145.03,195.34 144.53,196.00 143.91,196.59C143.30,197.17 142.06,198.76 141.16,200.12L139.51,202.59L140.28,203.63C140.70,204.21 141.05,204.90 141.05,205.19C141.05,205.47 141.28,205.89 141.56,206.12C141.84,206.35 142.33,207.07 142.66,207.70C142.99,208.34 143.57,209.35 143.95,209.95C144.72,211.14 146.00,213.28 146.84,214.77C147.14,215.30 147.72,216.22 148.13,216.82C148.55,217.42 149.00,218.15 149.14,218.45C149.47,219.15 150.09,220.18 151.00,221.53C152.13,223.23 152.61,224.01 152.86,224.59C152.99,224.89 153.44,225.63 153.86,226.22C154.29,226.82 154.83,227.71 155.07,228.21C155.54,229.17 155.98,229.90 157.14,231.64C158.01,232.93 158.52,233.80 159.32,235.34C159.65,235.98 160.15,236.69 160.43,236.92C160.71,237.15 160.94,237.56 160.94,237.83C160.94,238.34 163.10,241.69 163.56,241.89C163.71,241.96 163.84,242.21 163.84,242.44C163.84,242.67 164.57,243.97 165.46,245.33C166.36,246.70 167.09,248.02 167.09,248.27C167.09,248.53 167.32,248.93 167.60,249.16C167.88,249.39 168.38,250.10 168.71,250.74C169.56,252.38 170.06,253.21 170.92,254.44C171.33,255.03 171.78,255.76 171.92,256.06C172.05,256.36 172.65,257.33 173.24,258.23C173.84,259.13 174.58,260.35 174.89,260.94C175.71,262.53 176.21,263.35 177.13,264.62C177.57,265.25 177.94,265.91 177.94,266.11C177.94,266.30 178.18,266.66 178.48,266.91C178.77,267.15 178.93,267.50 178.82,267.67C178.71,267.85 171.30,268.00 162.07,268.00L145.52,268.00L144.73,267.16C144.30,266.70 143.94,266.07 143.94,265.76C143.94,265.44 143.70,264.99 143.40,264.74C143.10,264.49 142.86,264.09 142.86,263.84C142.86,263.59 142.63,263.19 142.35,262.96C142.07,262.73 141.58,262.02 141.25,261.38C140.67,260.22 140.28,259.51 139.60,258.32C139.40,257.97 139.13,257.44 139.00,257.14C138.87,256.85 138.42,256.12 138.01,255.53C136.80,253.80 136.39,253.08 135.80,251.63C135.70,251.38 135.21,250.53 134.71,249.73C134.20,248.94 133.55,247.80 133.25,247.20C132.95,246.60 132.40,245.63 132.02,245.03C131.28,243.86 130.03,241.65 129.22,240.06C128.94,239.52 128.56,238.98 128.37,238.87C128.18,238.75 128.03,238.43 128.03,238.16C128.03,237.89 127.42,236.71 126.67,235.55C124.47,232.11 124.42,232.03 124.23,231.56C124.13,231.31 123.97,230.90 123.86,230.65C123.76,230.40 123.19,229.47 122.60,228.57C122.01,227.68 121.35,226.50 121.13,225.95C120.48,224.34 119.61,224.74 117.25,227.76C116.05,229.30 113.67,231.94 111.97,233.63L108.86,236.69L108.86,252.34L108.86,268.00L94.56,268.00C83.46,268.00 80.23,267.89 80.10,267.54ZM367.34,267.76C367.20,267.62 367.09,248.12 367.09,224.41C367.09,182.99 367.12,181.28 367.76,180.70C368.36,180.16 369.72,180.11 381.59,180.20L394.76,180.29L394.76,224.05L394.76,267.81L381.17,267.91C373.70,267.96 367.47,267.89 367.34,267.76ZM411.07,267.43C410.67,266.38 410.82,181.57 411.23,180.81C411.59,180.14 412.11,180.11 423.81,180.11C432.83,180.11 436.14,180.22 436.46,180.54C436.70,180.78 436.89,181.93 436.89,183.10C436.89,185.31 437.49,188.36 438.03,188.96C438.23,189.18 438.93,188.71 439.88,187.73C440.73,186.87 441.98,185.79 442.68,185.35C443.38,184.91 444.26,184.20 444.63,183.77C445.01,183.35 445.60,183.00 445.95,183.00C446.29,183.00 446.77,182.76 447.02,182.46C447.27,182.16 447.74,181.92 448.08,181.92C448.41,181.92 448.87,181.73 449.11,181.50C449.66,180.94 452.03,180.13 453.17,180.10C453.67,180.09 454.48,179.85 454.98,179.57C456.31,178.81 469.32,178.82 470.33,179.58C470.71,179.87 471.49,180.11 472.05,180.11C472.61,180.11 473.35,180.25 473.70,180.43C474.04,180.60 475.14,181.12 476.13,181.58C477.13,182.04 478.11,182.55 478.30,182.71C478.50,182.87 479.39,183.53 480.28,184.19C482.27,185.65 484.51,188.56 486.06,191.68C486.70,192.98 487.37,194.32 487.56,194.66C487.74,195.01 487.89,195.74 487.90,196.29C487.91,196.84 488.15,197.61 488.44,197.99C488.73,198.38 488.97,199.37 488.97,200.21C488.97,201.04 489.22,202.31 489.52,203.02C489.99,204.16 490.05,208.48 489.97,236.07L489.88,267.81L476.31,267.81L462.75,267.81L462.52,239.06C462.39,223.25 462.17,209.50 462.04,208.50C461.91,207.51 461.49,206.02 461.12,205.20C460.27,203.34 457.71,201.09 456.44,201.09C455.92,201.09 455.13,200.83 454.69,200.52C454.06,200.08 453.15,199.98 450.54,200.09C445.96,200.28 443.29,201.30 440.65,203.89L438.88,205.61L438.70,236.71L438.52,267.81L424.91,267.91C412.73,267.99 411.27,267.94 411.07,267.43ZM642.56,267.75C642.43,267.62 642.32,241.29 642.32,209.24C642.32,164.39 642.42,150.86 642.75,150.53C643.34,149.94 680.83,149.90 682.35,150.48C682.91,150.70 684.50,150.94 685.88,151.02C687.26,151.10 688.55,151.33 688.75,151.53C688.95,151.73 689.71,151.90 690.42,151.90C691.14,151.90 692.05,152.14 692.43,152.43C692.82,152.72 693.52,152.97 693.98,152.97C694.45,152.98 695.26,153.21 695.79,153.48C696.32,153.76 697.16,154.16 697.65,154.37C700.97,155.78 701.98,156.28 702.18,156.60C702.30,156.80 702.64,156.96 702.93,156.96C703.71,156.96 709.38,161.15 712.24,163.84C713.61,165.13 715.36,167.08 716.13,168.18C716.90,169.27 718.03,170.88 718.65,171.76C719.27,172.64 719.93,173.70 720.12,174.11C720.31,174.53 721.03,175.92 721.72,177.20C722.41,178.49 722.97,179.81 722.97,180.14C722.97,180.47 723.22,180.95 723.51,181.19C723.81,181.44 724.06,181.99 724.07,182.41C724.07,182.84 724.32,183.50 724.61,183.89C724.90,184.27 725.14,185.12 725.14,185.76C725.14,186.41 725.30,187.04 725.50,187.16C725.70,187.29 725.87,187.99 725.88,188.72C725.88,189.46 726.12,190.46 726.41,190.96C726.69,191.46 726.93,192.84 726.94,194.03C726.95,195.23 727.20,197.00 727.50,197.98C728.27,200.54 728.27,217.91 727.50,220.47C727.20,221.45 726.95,223.22 726.94,224.41C726.93,225.61 726.69,226.99 726.41,227.49C726.12,227.99 725.88,228.91 725.88,229.55C725.87,230.18 725.70,230.80 725.50,230.92C725.30,231.05 725.14,231.67 725.14,232.30C725.14,232.94 724.89,233.92 724.60,234.49C724.30,235.06 724.06,235.74 724.06,236.00C724.06,236.26 723.78,237.01 723.45,237.68C723.12,238.34 722.63,239.31 722.37,239.84C722.10,240.37 721.89,241.06 721.89,241.38C721.89,241.70 721.73,241.96 721.55,241.96C721.36,241.96 721.10,242.32 720.96,242.76C720.81,243.21 719.68,245.12 718.43,247.01C716.14,250.48 709.56,257.34 707.24,258.67C706.04,259.36 705.24,259.86 703.62,260.94C702.56,261.65 700.73,262.57 698.56,263.49C697.96,263.74 696.90,264.18 696.21,264.48C694.00,265.41 692.45,265.89 691.19,266.01C690.52,266.08 689.79,266.31 689.58,266.52C689.37,266.74 688.29,266.92 687.18,266.92C686.08,266.93 684.77,267.17 684.27,267.45C683.52,267.88 679.99,267.97 663.09,267.98C651.93,267.99 642.69,267.89 642.56,267.75ZM1012.11,267.55C1012.02,267.30 1011.98,239.42 1012.03,205.61L1012.12,144.12L1019.54,144.12L1026.95,144.12L1027.05,166.71C1027.11,181.11 1027.27,189.43 1027.50,189.66C1027.74,189.90 1028.38,189.54 1029.40,188.57C1033.57,184.63 1039.45,180.83 1041.38,180.83C1041.68,180.83 1042.02,180.67 1042.14,180.47C1042.27,180.27 1042.89,180.10 1043.52,180.10C1044.15,180.09 1045.08,179.85 1045.58,179.57C1046.92,178.80 1059.53,178.80 1061.00,179.57C1061.57,179.86 1062.48,180.11 1063.03,180.11C1064.03,180.11 1064.22,180.18 1066.49,181.31C1067.16,181.65 1067.84,181.92 1068.01,181.92C1069.11,181.92 1075.05,187.23 1076.15,189.20C1078.31,193.09 1079.58,196.29 1079.91,198.74C1080.04,199.73 1080.35,200.90 1080.59,201.34C1080.92,201.94 1081.00,209.88 1080.93,234.97L1080.84,267.81L1073.52,267.91C1069.49,267.97 1066.16,267.97 1066.11,267.91C1066.06,267.86 1065.93,253.57 1065.81,236.17C1065.68,216.15 1065.46,203.92 1065.22,202.90C1064.71,200.71 1062.83,197.12 1061.59,195.96C1060.20,194.66 1057.66,193.13 1056.89,193.13C1056.54,193.13 1055.78,192.88 1055.21,192.59C1054.42,192.17 1052.85,192.04 1048.63,192.04C1045.58,192.04 1043.00,192.20 1042.88,192.38C1042.77,192.56 1042.17,192.82 1041.56,192.96C1039.84,193.34 1036.89,194.94 1035.13,196.46C1034.26,197.22 1033.43,197.83 1033.29,197.83C1033.03,197.83 1029.99,201.53 1028.86,203.22C1027.27,205.59 1027.32,204.62 1027.13,236.89L1026.95,267.81L1019.62,267.91C1013.95,267.99 1012.25,267.91 1012.11,267.55ZM683.19,254.43C683.69,254.15 684.77,253.91 685.61,253.90C686.44,253.90 687.22,253.73 687.35,253.53C687.47,253.33 687.90,253.17 688.31,253.17C688.71,253.17 689.48,252.94 690.00,252.66C690.53,252.39 692.02,251.62 693.31,250.97C697.83,248.68 701.89,245.29 703.88,242.13C704.38,241.33 705.06,240.46 705.38,240.19C705.71,239.92 705.97,239.40 705.97,239.04C705.97,238.68 706.12,238.29 706.30,238.18C706.76,237.89 708.14,235.16 708.14,234.53C708.14,234.24 708.31,234.00 708.50,234.00C708.70,234.00 708.87,233.62 708.87,233.16C708.87,232.70 709.11,232.01 709.40,231.63C709.69,231.24 709.94,230.44 709.95,229.84C709.97,229.24 710.21,228.35 710.49,227.85C710.78,227.35 711.02,226.19 711.02,225.27C711.03,224.35 711.28,223.13 711.58,222.56C712.36,221.06 712.36,196.67 711.58,195.30C711.29,194.80 711.05,193.58 711.04,192.59C711.02,191.59 710.77,190.46 710.48,190.08C710.19,189.69 709.95,188.92 709.95,188.37C709.95,187.82 709.68,186.75 709.36,186.00C709.03,185.25 708.61,184.22 708.42,183.73C706.84,179.65 704.72,176.39 701.35,172.86C699.70,171.14 697.91,169.51 697.37,169.24C696.83,168.97 696.15,168.55 695.85,168.31C694.85,167.52 691.77,166.00 691.14,166.00C690.79,166.00 690.31,165.76 690.06,165.46C689.81,165.16 689.09,164.92 688.46,164.92C687.83,164.92 687.11,164.72 686.87,164.48C686.06,163.67 681.73,163.38 669.81,163.34L658.05,163.29L657.96,208.68C657.91,233.65 657.94,254.27 658.04,254.52C658.31,255.23 681.94,255.14 683.19,254.43ZM222.31,249.39C222.87,249.11 223.87,248.67 224.53,248.43C225.19,248.19 226.69,247.04 227.88,245.88L230.03,243.75L229.94,236.43L229.84,229.12L225.53,229.01C222.37,228.94 220.77,229.06 219.58,229.47C218.69,229.77 217.55,230.02 217.05,230.02C215.08,230.02 210.13,233.47 210.13,234.84C210.13,235.13 209.88,235.56 209.59,235.81C209.29,236.06 209.04,236.84 209.04,237.57C209.04,238.29 208.88,239.45 208.68,240.14C208.06,242.31 208.94,245.47 210.67,247.23C211.47,248.05 212.61,248.97 213.20,249.28C214.68,250.04 220.88,250.12 222.31,249.39ZM319.79,246.92C320.93,246.32 322.09,245.57 322.37,245.25C323.24,244.26 325.14,240.37 325.14,239.59C325.14,239.18 325.29,238.69 325.47,238.50C325.65,238.31 325.87,236.69 325.96,234.90C326.05,233.11 326.33,229.61 326.59,227.13C327.01,223.13 326.99,222.19 326.46,219.06C326.13,217.10 325.86,214.63 325.86,213.56C325.86,212.49 325.70,211.52 325.50,211.39C325.30,211.27 325.14,210.70 325.14,210.14C325.14,208.80 322.90,204.39 321.61,203.18C321.06,202.67 320.25,202.14 319.80,202.01C319.36,201.87 318.99,201.61 318.99,201.42C318.99,201.24 318.61,201.09 318.15,201.09C317.70,201.09 317.00,200.85 316.62,200.56C316.13,200.19 314.98,200.02 312.84,200.02C310.70,200.02 309.55,200.19 309.07,200.56C308.68,200.85 308.00,201.09 307.55,201.09C305.57,201.09 301.48,204.41 300.90,206.50C300.42,208.24 300.43,240.87 300.91,242.15C301.39,243.41 305.10,247.02 305.91,247.02C306.26,247.02 306.75,247.22 307.00,247.47C307.53,248.00 312.01,248.36 315.37,248.15C317.07,248.04 318.30,247.70 319.79,246.92ZM556.97,215.37C557.74,214.44 557.09,208.30 556.00,206.23C554.41,203.22 553.38,202.40 549.01,200.72C547.02,199.95 541.97,199.82 540.98,200.52C540.53,200.83 539.80,201.09 539.35,201.09C537.75,201.09 533.10,205.49 533.10,206.99C533.10,207.28 532.85,207.71 532.55,207.96C532.26,208.21 532.01,208.76 532.01,209.20C532.01,209.63 531.82,210.17 531.59,210.40C530.98,211.02 530.52,214.88 530.99,215.45C531.29,215.81 534.16,215.91 543.95,215.91C554.66,215.91 556.58,215.84 556.97,215.37ZM375.05,170.54C374.55,170.26 373.41,169.70 372.51,169.29C370.38,168.33 368.47,166.34 367.10,163.67C366.11,161.73 366.01,161.22 366.01,158.03C366.01,155.23 366.16,154.17 366.78,152.78C368.01,150.00 372.06,146.11 373.72,146.11C373.92,146.11 374.38,145.85 374.74,145.52C375.28,145.03 376.31,144.93 380.76,144.92C385.87,144.91 386.22,144.96 388.27,145.91C390.59,146.99 394.94,150.92 394.94,151.94C394.94,152.27 395.18,152.74 395.48,152.98C395.91,153.34 396.02,154.34 396.02,157.62C396.02,161.11 395.90,162.05 395.28,163.35C393.93,166.13 389.63,169.98 387.88,169.98C387.63,169.98 387.23,170.23 386.98,170.53C386.35,171.28 376.40,171.30 375.05,170.54Z"/>
</svg>
