<svg xmlns="http://www.w3.org/2000/svg" viewBox="0 0 315 84" width="315" height="84">
<path fill="#333333" fill-rule="evenodd" d="M12.97,81.93C12.57,81.83 12.27,81.55 12.02,81.05C11.88,80.77 11.61,80.37 11.43,80.17C10.97,79.64 10.91,79.04 11.28,78.54C11.42,78.34 11.67,77.98 11.83,77.75C11.99,77.52 12.30,77.14 12.51,76.90C12.78,76.59 12.92,76.33 12.96,76.00C13.00,75.75 13.02,72.81 13.00,69.47L12.97,63.40L12.72,63.20C12.39,62.93 11.70,62.94 11.29,63.21C11.11,63.33 10.82,63.54 10.63,63.67C10.26,63.94 9.10,64.13 8.53,64.00C8.04,63.90 7.40,64.10 6.88,64.53L6.39,64.93L5.09,64.99C4.24,65.04 3.72,65.12 3.59,65.21C3.48,65.30 3.20,65.50 2.99,65.68C2.60,65.98 2.55,65.99 1.29,66.03L-0.00,66.07L-0.00,62.01L-0.00,57.96L1.34,57.97C2.81,57.98 2.95,57.94 3.76,57.39L4.33,57.02L6.02,57.02C6.96,57.02 7.87,56.97 8.06,56.92C8.25,56.86 8.62,56.64 8.89,56.42L9.38,56.02L10.89,56.00C12.60,55.97 12.86,55.89 12.97,55.31C13.00,55.12 13.02,53.73 13.00,52.22C12.97,49.75 12.95,49.46 12.78,49.27C12.50,48.96 12.07,48.92 11.10,49.09C10.63,49.17 10.10,49.24 9.92,49.24C9.73,49.24 9.40,49.39 9.09,49.61L8.57,49.98L6.31,49.98C3.40,49.99 2.78,50.07 2.17,50.50C1.67,50.86 1.14,51.02 0.45,51.03L0.00,51.03L0.00,46.87L0.00,42.70L1.08,42.76C2.23,42.83 2.24,42.83 3.36,42.20C3.71,42.01 3.96,42.00 8.05,42.00C10.43,42.00 12.45,41.97 12.54,41.93C12.97,41.77 13.02,41.40 13.02,38.44L13.02,35.61L12.77,35.31L12.51,35.02L6.26,34.99L-0.00,34.96L-0.00,31.18L0.00,27.41L1.50,27.39C3.36,27.38 3.28,27.37 4.06,27.67C4.70,27.93 4.76,27.93 8.61,27.96L12.51,27.98L12.77,27.69L13.02,27.39L13.02,24.56C13.02,21.50 12.97,21.16 12.47,21.06C12.34,21.03 11.64,20.99 10.92,20.96C9.82,20.92 9.40,20.85 8.29,20.54C6.80,20.10 5.37,19.92 3.78,19.96C3.17,19.98 2.08,19.95 1.34,19.90L0.00,19.81L0.00,15.88L0.00,11.94L0.97,12.00C1.80,12.04 2.10,12.11 3.04,12.50C4.13,12.94 4.17,12.95 5.83,13.03C7.49,13.11 8.24,13.25 9.45,13.71C9.81,13.85 10.41,13.91 11.97,13.96C13.92,14.03 14.05,14.04 14.68,14.33C15.43,14.67 15.96,15.20 15.96,15.62C15.96,15.78 15.97,29.56 15.99,46.24L16.01,76.57L16.39,76.90C16.97,77.40 17.01,77.55 17.01,79.08L17.01,80.47L16.24,81.24L15.47,82.00L14.32,81.99C13.69,81.99 13.08,81.96 12.97,81.93ZM19.56,73.94C19.04,73.86 19.00,73.65 19.01,70.83C19.01,69.07 19.06,68.08 19.14,67.84C19.34,67.27 19.67,67.10 20.77,67.00C21.62,66.92 21.79,66.87 22.13,66.60C22.74,66.12 22.93,66.05 23.64,66.04C24.34,66.04 25.03,65.81 25.30,65.48C25.55,65.17 25.83,65.08 26.79,65.00C27.61,64.93 27.77,64.88 28.12,64.61C28.71,64.13 28.92,64.05 29.52,64.05C30.31,64.05 30.79,63.89 31.29,63.47C31.53,63.27 31.76,63.10 31.80,63.10C31.84,63.09 32.28,63.05 32.78,63.01C33.36,62.96 33.78,62.87 33.93,62.75C34.07,62.65 34.34,62.46 34.53,62.31C34.79,62.13 35.03,62.05 35.37,62.05C36.27,62.05 36.63,61.94 37.12,61.51C37.55,61.12 37.64,61.09 38.50,61.00C39.31,60.92 39.48,60.86 39.99,60.51C40.49,60.17 40.68,60.10 41.56,59.99C42.39,59.89 42.61,59.81 42.93,59.56C43.50,59.11 43.51,59.11 44.46,59.01C45.34,58.92 45.68,58.80 46.23,58.36C46.44,58.19 46.78,58.09 47.53,58.00C48.39,57.89 48.59,57.82 48.94,57.55C49.45,57.13 49.77,57.02 50.38,57.01C51.07,57.01 51.57,56.85 52.03,56.49C52.25,56.31 52.55,56.15 52.70,56.12C53.44,55.97 53.77,55.83 53.87,55.65C53.94,55.51 53.97,49.37 53.97,36.42C53.97,18.19 53.96,17.37 53.78,17.01C53.67,16.81 53.39,16.50 53.15,16.33C52.72,16.03 52.67,16.02 51.11,15.97L49.51,15.91L48.84,15.49L48.18,15.08L46.72,15.01L45.26,14.95L44.71,14.57C44.02,14.10 43.49,13.97 42.20,13.97C41.32,13.97 41.13,13.93 40.73,13.70C39.73,13.14 39.57,13.09 38.10,13.02C36.64,12.94 36.60,12.93 35.54,12.33C35.06,12.05 34.93,12.03 33.71,12.00C32.07,11.95 32.07,11.95 31.38,11.48L30.82,11.08L29.40,11.01C27.87,10.94 27.77,10.92 27.14,10.50C26.52,10.08 26.42,10.06 24.88,9.98C23.47,9.91 23.44,9.90 22.72,9.50C22.02,9.10 21.96,9.09 20.70,9.03C18.87,8.95 19.00,9.23 19.00,5.50C19.00,2.66 19.01,2.51 19.21,2.31C19.51,2.01 19.86,2.05 20.33,2.43C20.89,2.87 21.11,2.94 22.27,3.03C23.14,3.10 23.33,3.16 23.74,3.43C24.40,3.88 24.50,3.91 25.64,3.98C26.57,4.05 26.70,4.08 27.06,4.37C27.68,4.87 27.87,4.94 28.80,5.00C30.13,5.08 30.28,5.12 30.82,5.54C31.31,5.93 31.34,5.93 32.44,5.99C33.48,6.03 33.60,6.06 34.01,6.35C34.73,6.87 34.89,6.93 35.99,7.02C36.98,7.10 37.08,7.13 37.59,7.51C38.12,7.89 38.19,7.92 39.20,7.99C40.42,8.08 40.48,8.10 41.27,8.57C41.76,8.87 41.98,8.93 42.86,9.01C43.80,9.10 43.91,9.13 44.42,9.51C44.96,9.90 44.99,9.91 46.18,9.99C47.11,10.04 47.44,10.10 47.66,10.26C47.81,10.37 48.08,10.57 48.26,10.70C48.52,10.89 48.79,10.95 49.69,11.01C50.75,11.09 50.83,11.11 51.39,11.49C51.93,11.87 52.04,11.90 53.04,11.99C53.90,12.06 54.21,12.13 54.59,12.35C55.47,12.85 55.59,12.90 56.43,13.01C57.43,13.15 57.70,13.31 57.86,13.83C57.94,14.11 57.96,20.65 57.94,36.26L57.91,58.29L57.58,58.58C57.40,58.75 57.07,58.90 56.83,58.94C56.58,58.98 56.20,59.17 55.89,59.40C55.42,59.76 54.62,60.06 54.12,60.06C54.00,60.06 53.61,60.25 53.26,60.49C52.84,60.77 52.46,60.94 52.17,60.97C51.40,61.05 51.29,61.09 50.79,61.48C50.42,61.76 50.12,61.88 49.51,62.00C48.64,62.17 48.63,62.17 48.07,62.61C47.78,62.84 47.52,62.93 46.98,63.00C46.52,63.06 46.18,63.17 46.00,63.31C45.41,63.78 45.26,63.85 44.52,63.99C43.97,64.09 43.61,64.24 43.20,64.52C42.76,64.82 42.49,64.93 41.95,64.99C41.38,65.07 41.18,65.15 40.79,65.46C40.42,65.77 40.16,65.88 39.53,66.00C38.64,66.17 38.64,66.16 38.10,66.60C37.81,66.83 37.55,66.92 37.01,66.99C36.55,67.05 36.20,67.16 36.02,67.30C35.45,67.76 35.31,67.83 34.56,67.98C33.78,68.15 33.44,68.30 32.96,68.68C32.79,68.82 32.43,68.93 31.98,68.98C31.43,69.05 31.18,69.14 30.89,69.38C30.35,69.81 30.15,69.90 29.56,69.99C28.85,70.09 28.62,70.19 28.15,70.57C27.83,70.82 27.59,70.91 27.06,70.98C26.31,71.07 26.30,71.07 25.65,71.57C25.35,71.80 25.04,71.93 24.65,71.98C24.05,72.06 23.46,72.31 22.90,72.71C22.65,72.90 22.41,72.97 22.09,72.97C21.52,72.97 21.22,73.09 20.76,73.50C20.36,73.85 19.94,74.00 19.56,73.94ZM272.21,62.84C272.04,62.75 271.78,62.56 271.63,62.43C271.49,62.29 271.17,62.08 270.93,61.96C270.44,61.72 270.26,61.48 270.06,60.86C269.98,60.63 269.72,60.25 269.46,59.99L269.00,59.54L269.03,56.89L269.06,54.23L269.39,53.76C269.57,53.50 269.81,53.07 269.93,52.80C270.09,52.43 270.33,52.18 270.94,51.72C271.67,51.17 271.81,51.11 272.50,51.02C273.40,50.90 276.78,50.92 277.31,51.04C277.72,51.14 278.83,52.22 279.19,52.88C279.31,53.10 279.53,53.45 279.67,53.64C280.19,54.36 279.85,55.02 278.98,55.02C278.54,55.02 278.48,54.98 277.50,53.99C276.32,52.79 275.93,52.60 274.55,52.61C273.23,52.61 272.70,52.82 271.78,53.73L271.00,54.48L271.00,56.97L271.00,59.46L271.77,60.23C272.68,61.17 273.28,61.42 274.52,61.42C275.78,61.42 276.33,61.16 277.46,60.04C277.97,59.52 278.52,59.05 278.66,58.99C279.05,58.84 279.59,58.98 279.78,59.27C279.98,59.58 279.91,59.85 279.50,60.31C279.34,60.50 279.11,60.87 279.00,61.13C278.82,61.54 278.32,62.05 278.10,62.05C278.06,62.05 277.75,62.26 277.40,62.50L276.76,62.95L274.65,62.98C272.87,63.00 272.48,62.98 272.21,62.84ZM285.23,62.88C285.12,62.81 284.90,62.65 284.76,62.52C284.62,62.39 284.24,62.16 283.92,62.02C283.45,61.81 283.25,61.64 282.92,61.16C282.27,60.22 282.03,59.81 282.03,59.61C282.03,59.51 281.89,58.99 281.71,58.46C281.35,57.38 281.35,56.99 281.73,56.26C281.87,55.97 281.97,55.51 282.02,54.81C282.07,54.13 282.16,53.68 282.28,53.51C282.60,53.01 284.38,51.32 284.74,51.17C285.14,51.00 289.82,50.88 290.33,51.03C290.74,51.15 292.84,53.27 292.96,53.69C293.01,53.87 293.06,54.15 293.06,54.31C293.06,54.49 293.19,54.75 293.42,55.00C293.91,55.54 294.00,55.83 294.00,56.84C294.00,57.90 293.91,58.22 293.44,58.83C293.24,59.10 293.02,59.50 292.95,59.71C292.82,60.10 292.25,61.07 291.80,61.65C291.66,61.83 291.38,62.00 291.02,62.10C290.72,62.19 290.38,62.36 290.26,62.48C289.84,62.96 289.61,63.00 287.47,63.00C286.19,62.99 285.36,62.95 285.23,62.88ZM296.25,62.74L296.00,62.48L296.00,57.01C296.00,53.71 296.04,51.47 296.10,51.35C296.24,51.08 296.77,50.89 297.19,50.97C297.41,51.01 297.67,51.18 297.91,51.45C298.12,51.68 298.37,51.87 298.46,51.87C298.55,51.87 298.84,51.67 299.11,51.42L299.59,50.98L301.55,50.98C302.62,50.98 303.68,51.02 303.90,51.07C304.18,51.12 304.51,51.33 304.93,51.72C305.45,52.20 305.61,52.29 305.95,52.29C306.38,52.29 306.70,52.11 307.15,51.59C307.63,51.04 307.98,50.98 310.36,50.98L312.48,50.98L313.50,52.00C314.20,52.72 314.58,53.02 314.75,53.02L315.00,53.02L315.00,58.01L315.00,63.00L314.26,63.00C313.61,63.00 313.49,62.97 313.26,62.74L313.00,62.48L313.00,58.49L313.00,54.49L312.28,53.77C311.37,52.87 310.66,52.56 309.70,52.63C308.35,52.74 307.37,53.47 306.91,54.71C306.66,55.36 306.65,55.52 306.60,58.95L306.55,62.51L306.25,62.73C305.85,63.02 305.14,63.02 304.74,62.73L304.45,62.51L304.39,58.95L304.34,55.39L304.04,54.52C303.70,53.53 303.45,53.26 302.53,52.92C301.07,52.37 300.06,52.55 298.94,53.59C298.56,53.94 298.20,54.32 298.12,54.44C298.03,54.60 298.00,55.69 297.99,58.55C297.99,62.33 297.98,62.45 297.77,62.72C297.59,62.96 297.47,63.00 297.03,63.00C296.62,63.00 296.46,62.95 296.25,62.74ZM19.26,60.75L19.00,60.49L19.00,57.50C19.00,53.77 18.87,54.05 20.70,53.97L22.00,53.92L22.57,53.50L23.15,53.08L24.88,53.02C26.25,52.98 26.69,52.93 26.95,52.79C27.14,52.69 27.32,52.56 27.35,52.50C27.39,52.44 27.57,52.31 27.75,52.21C28.02,52.07 28.47,52.02 29.89,51.98L31.69,51.92L32.29,51.50L32.90,51.08L34.70,51.02C36.56,50.96 36.77,50.91 37.38,50.46C37.91,50.06 38.33,49.98 39.93,49.98C41.49,49.98 41.80,49.91 42.49,49.38C42.86,49.10 42.93,49.09 44.46,49.02C46.20,48.95 46.20,48.95 47.08,48.42C47.68,48.06 47.75,48.04 48.84,48.00C51.03,47.93 51.03,47.92 51.03,50.49C51.03,52.31 50.96,52.73 50.62,52.88C50.53,52.93 49.91,52.99 49.24,53.02L48.04,53.08L47.37,53.52C46.70,53.97 46.70,53.97 45.72,53.97C44.61,53.97 44.29,54.06 43.83,54.50C43.41,54.90 42.99,55.02 41.92,55.02C41.02,55.02 40.49,55.17 40.22,55.48C39.91,55.86 39.50,55.97 38.35,56.00C37.16,56.02 37.02,56.07 36.21,56.65C35.80,56.94 35.69,56.97 34.60,57.02L33.42,57.07L32.92,57.48L32.41,57.90L31.10,57.98C30.33,58.03 29.71,58.12 29.61,58.19C29.51,58.27 29.24,58.47 29.03,58.64C28.65,58.94 28.56,58.96 27.47,59.01C26.31,59.06 26.30,59.06 25.63,59.51C24.94,59.97 24.71,60.02 23.61,59.96C22.95,59.93 22.32,60.12 21.91,60.48C21.43,60.90 21.11,61.01 20.25,61.01C19.62,61.01 19.49,60.97 19.26,60.75ZM290.21,60.29C290.61,59.89 290.96,59.48 290.98,59.37C291.01,59.26 291.12,58.73 291.23,58.20C291.40,57.28 291.40,57.18 291.24,56.52C291.15,56.13 291.05,55.51 291.02,55.14C290.97,54.47 290.97,54.46 290.26,53.74C289.21,52.69 288.17,52.36 287.20,52.77C286.98,52.86 286.50,52.96 286.13,53.00C285.46,53.06 285.44,53.07 284.76,53.76L284.06,54.45L283.99,55.41C283.95,55.93 283.88,56.49 283.82,56.64C283.66,57.04 283.68,57.65 283.87,58.17C283.95,58.42 284.03,58.74 284.03,58.89C284.03,59.04 284.09,59.27 284.16,59.39C284.40,59.81 285.20,60.74 285.43,60.87C285.58,60.96 286.27,61.00 287.57,61.00L289.49,61.01L290.21,60.29ZM148.42,55.08C148.24,55.00 148.04,54.84 147.97,54.71C147.79,54.42 147.77,24.68 147.95,24.36C148.21,23.87 148.45,23.82 150.50,23.82C151.73,23.81 152.52,23.86 152.66,23.93C152.96,24.09 153.19,24.58 153.19,25.04C153.19,25.52 153.53,25.87 153.91,25.80C154.34,25.71 155.79,24.80 156.03,24.46C156.40,23.95 156.75,23.90 160.07,23.89C161.75,23.89 163.57,23.94 164.12,24.00C165.06,24.11 165.15,24.14 165.90,24.65C166.35,24.96 167.40,25.90 168.34,26.86C169.98,28.50 170.00,28.53 170.00,28.99C170.00,29.65 170.16,30.15 170.52,30.61C170.69,30.82 170.88,31.17 170.94,31.38C171.06,31.83 171.07,38.24 170.95,38.99C170.89,39.33 170.76,39.60 170.55,39.83C170.11,40.29 170.00,40.55 170.00,41.05C170.00,41.42 169.92,41.56 169.42,42.10C169.10,42.45 168.84,42.78 168.84,42.83C168.84,42.88 168.56,43.29 168.22,43.75C167.57,44.63 166.14,45.83 165.60,45.95C164.74,46.14 164.50,46.24 164.18,46.52C163.99,46.68 163.70,46.87 163.55,46.93C163.17,47.08 157.82,47.08 157.44,46.93C157.28,46.87 157.00,46.69 156.81,46.52C156.62,46.35 156.20,46.14 155.88,46.05C155.47,45.93 155.23,45.79 155.07,45.57C154.76,45.16 153.76,44.41 153.51,44.41C153.40,44.41 153.28,44.46 153.24,44.53C153.21,44.59 153.18,46.85 153.19,49.56L153.20,54.48L152.89,54.83L152.58,55.18L150.66,55.20C149.20,55.22 148.66,55.19 148.42,55.08ZM174.93,55.12C174.63,55.06 174.37,54.92 174.22,54.75L173.99,54.48L173.99,39.57C173.99,22.98 173.93,24.15 174.69,23.95C174.91,23.89 176.07,23.83 177.27,23.82C179.88,23.80 179.86,23.79 179.98,24.95C180.08,25.96 180.44,26.18 181.14,25.67C181.33,25.53 181.78,25.28 182.13,25.11C182.49,24.94 182.87,24.66 183.00,24.48C183.40,23.93 183.68,23.89 187.32,23.89C189.14,23.89 190.85,23.93 191.12,23.97C191.44,24.03 191.81,24.20 192.16,24.46C192.46,24.69 192.88,24.90 193.10,24.94C193.42,24.99 193.71,25.22 194.68,26.18C195.66,27.15 195.89,27.45 196.04,27.89C196.14,28.19 196.39,28.65 196.60,28.92C196.91,29.32 196.98,29.51 196.98,29.91C196.98,30.41 197.23,31.04 197.61,31.51C197.97,31.95 198.02,32.46 198.03,35.52L198.03,38.43L197.62,38.88C197.06,39.50 196.98,39.69 196.98,40.41C196.98,40.76 196.93,41.17 196.87,41.33C196.81,41.49 196.37,42.05 195.90,42.58C195.43,43.11 194.91,43.76 194.75,44.03C194.55,44.37 194.30,44.61 193.90,44.83C193.59,45.01 193.19,45.32 193.00,45.52C192.82,45.72 192.57,45.90 192.44,45.93C192.31,45.95 192.04,46.00 191.84,46.04C191.60,46.08 191.31,46.26 191.02,46.54L190.57,46.99L187.76,47.02C186.22,47.04 184.81,47.02 184.63,46.99C184.46,46.96 184.12,46.77 183.89,46.57C183.65,46.37 183.25,46.16 182.96,46.08C182.53,45.97 182.32,45.82 181.55,45.03C181.06,44.52 180.59,44.10 180.52,44.10C180.45,44.10 180.30,44.19 180.18,44.31C179.98,44.51 179.97,44.66 179.97,49.50C179.97,52.93 179.93,54.56 179.85,54.74C179.79,54.88 179.62,55.05 179.48,55.11C179.18,55.25 175.65,55.25 174.93,55.12ZM19.22,47.71C19.01,47.44 19.00,47.31 19.00,44.50C19.00,42.76 19.05,41.49 19.11,41.37C19.31,41.00 19.84,40.94 22.34,40.96C23.84,40.97 24.90,40.94 25.20,40.86C25.46,40.80 25.96,40.74 26.32,40.74C26.85,40.74 27.07,40.68 27.58,40.40L28.19,40.06L32.66,39.99C37.67,39.91 38.34,39.85 38.96,39.43C39.19,39.27 39.58,39.10 39.82,39.05C40.07,39.00 41.97,38.96 44.05,38.96C46.16,38.96 48.01,38.91 48.25,38.85C48.81,38.71 50.26,38.72 50.52,38.86C50.91,39.06 51.03,39.59 51.03,41.00C51.03,42.60 50.91,42.97 50.33,43.22C50.11,43.31 49.67,43.51 49.35,43.66C48.79,43.93 48.69,43.94 46.30,44.00L43.84,44.06L42.89,44.53L41.95,44.99L39.45,45.02C36.75,45.05 36.68,45.06 35.88,45.70C35.59,45.93 35.48,45.94 32.78,46.00C30.43,46.05 29.92,46.08 29.64,46.23C29.46,46.33 29.28,46.46 29.24,46.53C29.20,46.59 28.97,46.73 28.73,46.84C28.35,47.01 28.02,47.04 26.21,47.04C23.92,47.04 23.40,47.12 22.24,47.67C21.64,47.96 21.48,47.98 20.51,47.98C19.48,47.98 19.43,47.97 19.22,47.71ZM68.51,46.96C68.40,46.93 68.08,46.73 67.81,46.52C67.53,46.30 67.14,46.09 66.92,46.05C66.70,46.02 66.44,45.93 66.36,45.86C66.14,45.68 65.24,44.32 65.10,43.95C65.03,43.76 65.00,39.57 65.00,31.07C65.00,18.67 65.00,18.48 65.20,18.27C65.50,17.97 65.77,17.93 67.25,17.97C68.50,18.01 68.60,18.02 68.78,18.26C68.98,18.50 68.98,18.84 68.98,29.99L68.98,41.48L69.24,41.74C69.48,41.98 69.58,42.00 70.49,42.00C72.01,42.00 71.97,41.93 72.01,44.41L72.04,46.41L71.73,46.73L71.42,47.04L70.07,47.03C69.33,47.02 68.63,46.99 68.51,46.96ZM81.19,46.94C81.01,46.89 80.60,46.68 80.28,46.47C79.85,46.16 79.57,46.06 79.07,46.00L78.42,45.92L76.74,44.24L75.06,42.56L74.98,41.95C74.90,41.40 74.84,41.29 74.49,40.99L74.08,40.64L74.02,39.55C73.96,38.48 73.94,38.43 73.49,37.68L73.03,36.91L72.99,35.69C72.95,34.23 73.08,33.52 73.50,32.93C73.85,32.44 74.02,31.81 74.02,31.01C74.02,30.52 74.06,30.44 74.46,30.05C74.84,29.69 74.91,29.54 74.98,29.02L75.06,28.42L76.72,26.75C78.21,25.26 78.44,25.07 78.93,24.93C79.23,24.84 79.68,24.60 79.91,24.41C80.15,24.21 80.45,24.04 80.57,24.04C80.70,24.03 82.54,24.03 84.67,24.03L88.54,24.02L88.97,24.45C89.21,24.68 89.60,24.95 89.83,25.05C91.34,25.67 93.65,27.90 93.94,29.01C94.03,29.37 94.22,29.69 94.54,30.02L95.00,30.52L95.07,32.03C95.22,34.98 95.14,36.29 94.77,36.72L94.55,36.97L86.20,36.99C81.61,37.00 77.77,37.05 77.67,37.10C77.26,37.30 77.25,37.56 77.60,38.18C77.88,38.67 77.95,38.92 78.00,39.68L78.07,40.58L78.72,41.23C79.08,41.59 79.52,41.96 79.72,42.06C79.91,42.16 80.21,42.35 80.38,42.49C80.56,42.62 80.91,42.80 81.17,42.89C81.42,42.98 81.84,43.22 82.10,43.42C82.62,43.83 82.52,43.81 84.31,43.79C85.47,43.78 85.69,43.74 86.15,43.52C86.44,43.38 86.95,43.17 87.28,43.06C87.60,42.95 88.08,42.71 88.33,42.53C88.57,42.34 89.00,42.06 89.27,41.89C89.68,41.64 89.78,41.51 89.88,41.14C90.17,39.99 90.37,39.88 92.21,39.82C94.26,39.75 94.84,39.89 94.84,40.46C94.84,40.66 94.71,40.87 94.42,41.14C94.12,41.42 93.99,41.64 93.94,41.95C93.84,42.60 92.54,44.13 91.08,45.32C90.46,45.82 90.12,45.99 89.72,45.99C89.57,45.99 89.28,46.15 89.07,46.34C88.33,47.00 88.44,46.99 84.84,47.01C83.02,47.02 81.38,46.99 81.19,46.94ZM105.47,46.92C104.98,46.64 105.00,47.13 105.00,35.01C105.00,23.88 104.99,23.54 104.80,23.30L104.60,23.05L101.43,23.00L98.27,22.94L97.64,22.30L97.02,21.65L97.02,20.08C97.02,18.68 97.04,18.47 97.22,18.26L97.42,18.01L107.35,17.98C118.23,17.95 117.89,17.93 118.14,18.55C118.21,18.74 118.23,19.43 118.21,20.42C118.16,22.10 118.02,22.66 117.62,22.88C117.48,22.96 116.37,23.00 114.47,23.00C111.74,23.00 111.52,23.01 111.29,23.20L111.04,23.40L110.98,34.72C110.94,45.31 110.92,46.07 110.75,46.33C110.37,46.92 110.08,46.98 107.78,47.01C106.35,47.03 105.62,47.01 105.47,46.92ZM126.47,46.91C126.36,46.85 126.12,46.63 125.95,46.44C125.68,46.14 125.53,46.07 125.03,46.00C124.35,45.91 124.18,45.77 122.14,43.67C121.13,42.63 121.05,42.52 120.97,42.01C120.90,41.58 120.80,41.37 120.48,41.05C120.14,40.70 120.07,40.55 120.01,40.01C119.95,39.48 119.87,39.30 119.56,38.96C119.35,38.73 119.14,38.41 119.10,38.25C119.05,38.09 119.02,36.68 119.02,35.12L119.02,32.27L119.41,31.70C119.86,31.05 120.02,30.60 120.02,29.94C120.02,29.54 120.07,29.43 120.48,29.02C120.80,28.70 120.97,28.44 121.02,28.17C121.06,27.95 121.14,27.68 121.20,27.56C121.39,27.19 122.25,26.25 122.93,25.67C123.46,25.22 123.67,25.10 124.10,25.04C124.45,25.00 124.84,24.83 125.30,24.52C125.95,24.10 126.04,24.07 127.07,23.98C128.35,23.87 132.60,23.87 133.18,23.98C133.46,24.03 133.72,24.20 134.03,24.52C134.41,24.91 134.55,24.99 134.89,24.99C135.37,25.00 135.67,25.15 135.97,25.54C136.13,25.74 136.30,25.83 136.50,25.83C136.89,25.83 137.03,25.59 137.03,24.90C137.03,24.50 137.08,24.30 137.27,24.09L137.52,23.80L139.81,23.82C142.34,23.85 142.68,23.92 142.89,24.43C142.98,24.65 143.01,27.31 142.99,35.33C142.96,45.24 142.95,45.96 142.77,46.28C142.41,46.93 142.17,46.99 139.67,46.99C137.44,46.99 137.43,46.99 137.23,46.74C137.06,46.54 137.03,46.32 137.03,45.55C137.03,43.86 136.72,43.78 135.37,45.12C134.38,46.11 133.39,46.79 132.75,46.94C132.14,47.08 126.73,47.06 126.47,46.91ZM206.92,46.94C206.70,46.90 206.37,46.72 206.19,46.54C205.73,46.11 205.47,45.99 204.97,45.99C204.47,45.99 204.18,45.76 202.96,44.40C202.25,43.61 202.13,43.42 202.06,42.98C202.00,42.57 201.90,42.39 201.54,42.04C201.23,41.74 201.04,41.44 200.93,41.06C200.84,40.76 200.62,40.35 200.45,40.15C200.07,39.72 200.06,39.66 199.96,38.06C199.82,35.74 199.89,31.74 200.09,30.79C200.11,30.66 200.31,30.36 200.52,30.12C200.84,29.77 200.92,29.59 200.98,29.05L201.06,28.40L202.99,26.50C204.05,25.46 205.10,24.48 205.33,24.33C205.69,24.10 205.93,24.05 207.15,23.95C208.83,23.81 212.06,23.81 213.50,23.93L214.53,24.03L215.43,24.93C216.59,26.10 216.87,26.10 217.02,24.95C217.12,24.26 217.22,24.12 217.74,23.96C218.36,23.78 222.40,23.77 222.68,23.95C223.26,24.31 223.24,23.88 223.21,35.41C223.18,45.40 223.17,46.07 222.99,46.42C222.88,46.63 222.68,46.85 222.54,46.92C222.14,47.10 218.80,47.08 218.36,46.90C218.17,46.82 217.83,46.53 217.61,46.25C216.75,45.21 216.53,45.02 216.28,45.10C216.14,45.14 215.86,45.31 215.64,45.49C215.42,45.66 215.06,45.85 214.85,45.91C214.63,45.97 214.30,46.19 214.09,46.41C213.89,46.62 213.62,46.85 213.50,46.92C213.24,47.06 207.61,47.07 206.92,46.94ZM229.15,46.92C228.56,46.79 228.20,46.41 228.07,45.77C227.89,44.96 227.92,24.81 228.09,24.46C228.16,24.32 228.39,24.12 228.59,24.02C228.91,23.85 229.21,23.83 231.12,23.86C233.14,23.89 233.32,23.90 233.59,24.11C233.84,24.29 233.90,24.43 233.94,24.91C234.03,25.89 234.47,26.11 235.09,25.47C235.28,25.27 235.75,24.90 236.13,24.63C236.95,24.07 237.81,23.84 239.17,23.84C240.13,23.83 240.68,24.00 240.87,24.35C240.95,24.51 240.98,25.29 240.95,26.82C240.91,29.97 240.93,29.94 238.03,30.03C235.90,30.09 235.84,30.12 235.15,31.20C234.93,31.54 234.62,31.92 234.45,32.04C234.29,32.15 234.12,32.36 234.09,32.50C234.05,32.63 234.02,35.69 234.01,39.29C233.99,45.40 233.98,45.86 233.80,46.22C233.48,46.86 233.10,46.98 231.21,47.00C230.31,47.02 229.39,46.98 229.15,46.92ZM250.16,46.92C249.93,46.87 249.56,46.68 249.35,46.51C248.94,46.17 248.63,46.05 248.00,45.94C247.77,45.91 247.37,45.68 247.00,45.38C245.99,44.57 244.07,42.60 243.92,42.20C243.84,42.01 243.62,41.60 243.42,41.31C243.14,40.88 243.05,40.63 242.98,39.97C242.90,39.28 242.83,39.08 242.56,38.74C242.38,38.52 242.19,38.21 242.13,38.06C242.07,37.90 242.03,36.62 242.03,35.06L242.03,32.34L242.39,31.94C242.86,31.42 242.97,31.11 242.97,30.33C242.97,29.98 243.01,29.62 243.07,29.52C243.12,29.42 243.57,28.92 244.07,28.40C244.58,27.88 245.06,27.32 245.14,27.14C245.37,26.70 245.70,26.36 246.12,26.14C246.32,26.04 246.93,25.53 247.48,25.00C248.02,24.47 248.52,24.04 248.58,24.03C249.45,23.92 255.03,23.87 257.23,23.96L258.52,24.01L259.07,24.53C259.94,25.37 260.57,25.83 260.94,25.90C261.45,25.99 261.62,26.10 262.25,26.73C262.86,27.34 263.02,27.65 263.02,28.16C263.02,28.40 263.15,28.62 263.50,28.99C263.86,29.38 263.97,29.58 263.97,29.84C263.97,30.39 264.16,30.92 264.50,31.34C264.96,31.92 265.02,32.30 265.02,34.46C265.02,36.35 265.01,36.43 264.78,36.70L264.55,36.97L256.66,36.99C249.06,37.01 248.76,37.02 248.55,37.21C248.26,37.48 248.27,37.88 248.58,38.44C248.72,38.70 248.89,39.10 248.96,39.35C249.12,39.87 249.68,40.57 250.14,40.81C250.32,40.90 250.70,41.21 250.99,41.49L251.50,42.00L253.50,42.00L255.50,42.00L257.01,40.50L258.52,39.01L261.02,39.01C263.30,39.01 263.55,39.03 263.74,39.20C264.19,39.60 264.12,40.56 263.60,41.27C263.45,41.47 263.23,41.85 263.12,42.10C262.85,42.71 260.92,44.68 259.95,45.32C259.56,45.58 259.07,45.85 258.85,45.91C258.63,45.97 258.30,46.19 258.09,46.41C257.89,46.62 257.62,46.85 257.49,46.92C257.21,47.07 250.80,47.07 250.16,46.92ZM271.49,46.92C271.38,46.86 270.78,46.30 270.15,45.68C269.18,44.73 269.01,44.51 269.01,44.23C269.01,43.74 268.83,43.36 268.40,42.91L268.01,42.51L268.01,30.50L268.01,18.49L268.25,18.25C268.49,18.01 268.53,18.01 271.00,18.01C273.48,18.01 273.52,18.01 273.76,18.25L274.00,18.49L274.02,29.74C274.03,35.94 274.04,41.11 274.05,41.24C274.05,41.38 274.17,41.60 274.31,41.74C274.54,41.98 274.64,42.00 275.55,42.00C276.48,42.00 276.57,42.02 276.96,42.31C277.20,42.48 277.52,42.79 277.69,43.01C277.99,43.40 277.99,43.41 277.99,44.96C277.99,47.16 278.28,46.98 274.60,47.01C272.59,47.03 271.63,47.00 271.49,46.92ZM284.49,46.94C284.36,46.89 284.14,46.69 283.99,46.50C283.81,46.27 283.49,46.06 283.06,45.88C282.49,45.66 282.37,45.56 282.15,45.15C282.01,44.89 281.70,44.44 281.46,44.16L281.03,43.63L281.00,31.19C280.98,22.26 281.01,18.66 281.09,18.46C281.16,18.30 281.34,18.13 281.53,18.07C281.93,17.93 286.12,17.92 286.48,18.05C286.62,18.11 286.79,18.25 286.86,18.37C286.94,18.52 286.98,21.97 287.00,30.09L287.02,41.60L287.27,41.80C287.47,41.97 287.68,42.00 288.50,42.00C289.40,42.00 289.52,42.02 289.74,42.25C289.88,42.38 290.04,42.73 290.10,43.04C290.25,43.74 290.26,46.25 290.11,46.53C289.87,46.97 289.43,47.04 286.99,47.03C285.74,47.03 284.61,46.99 284.49,46.94ZM300.46,46.92C300.34,46.85 300.11,46.63 299.93,46.44C299.67,46.14 299.52,46.07 299.00,46.00C298.46,45.93 298.33,45.86 297.99,45.49C297.77,45.25 297.39,44.96 297.14,44.83C296.51,44.51 295.62,43.63 295.20,42.92C295.01,42.59 294.65,42.12 294.40,41.87C293.76,41.22 293.14,40.18 293.04,39.60C293.00,39.33 292.96,38.82 292.96,38.47C292.95,37.96 292.90,37.76 292.69,37.47C291.95,36.47 291.99,36.61 292.03,35.07C292.05,33.81 292.08,33.61 292.29,33.29C292.78,32.52 292.95,32.08 292.95,31.50C292.95,30.72 293.07,30.36 293.50,29.79C293.70,29.53 293.90,29.13 293.94,28.91C294.01,28.57 294.29,28.24 295.76,26.75C296.72,25.78 297.56,24.99 297.62,24.99C297.68,24.99 298.09,24.78 298.52,24.52C299.26,24.08 299.37,24.05 300.46,23.94C301.95,23.80 305.99,23.80 307.55,23.95C308.65,24.05 308.80,24.09 309.28,24.41C309.57,24.60 309.98,24.84 310.20,24.92C310.46,25.03 311.20,25.69 312.27,26.76C313.87,28.37 313.94,28.46 314.00,28.94C314.09,29.66 314.27,29.96 314.66,30.08L315.00,30.18L315.00,33.57L315.00,36.96L307.23,36.98L299.47,37.01L299.23,37.25C299.01,37.47 298.99,37.59 298.99,38.49L298.99,39.49L300.26,40.74L301.52,42.00L303.98,42.00L306.43,42.00L307.22,41.18C307.66,40.72 308.16,40.15 308.33,39.90C308.91,39.05 309.08,39.01 311.52,39.01L313.65,39.01L313.91,39.31C314.15,39.59 314.17,39.67 314.11,40.31C314.00,41.43 313.96,41.56 313.51,41.97C313.28,42.19 312.98,42.58 312.85,42.84C312.56,43.41 311.33,44.62 310.73,44.92C310.50,45.04 310.19,45.28 310.04,45.45C309.72,45.83 309.50,45.94 308.91,46.03C308.55,46.09 308.33,46.21 307.99,46.55L307.54,46.99L304.10,47.01C301.65,47.03 300.61,47.00 300.46,46.92ZM132.92,41.59C133.33,41.14 133.71,40.95 134.20,40.95C134.45,40.95 134.66,40.80 135.19,40.27C135.56,39.89 135.89,39.48 135.91,39.35C135.94,39.22 135.99,38.95 136.02,38.74C136.05,38.54 136.27,38.12 136.49,37.82C136.99,37.16 137.06,36.77 137.01,34.74C136.98,33.42 136.95,33.27 136.73,33.00C136.60,32.84 136.33,32.38 136.14,31.97C135.89,31.44 135.61,31.07 135.11,30.61C134.09,29.65 133.47,29.20 133.01,29.08C132.44,28.92 129.29,29.00 128.94,29.17C127.60,29.85 126.16,31.17 126.05,31.83C126.01,32.02 125.97,32.29 125.94,32.42C125.91,32.54 125.71,32.83 125.48,33.06C124.99,33.54 124.91,33.94 124.97,35.53C125.01,36.59 125.02,36.64 125.39,37.19C125.61,37.50 125.85,37.95 125.94,38.20C126.03,38.44 126.30,38.88 126.55,39.17C127.03,39.73 129.30,41.80 129.57,41.91C129.65,41.95 130.36,41.99 131.13,41.99L132.53,42.00L132.92,41.59ZM160.95,41.53C161.36,41.14 161.56,41.04 161.97,40.99C162.43,40.93 162.55,40.85 163.09,40.28C163.68,39.65 163.82,39.41 163.95,38.81C163.99,38.65 164.24,38.28 164.51,37.99L165.01,37.46L164.98,35.22C164.96,33.98 164.91,32.86 164.86,32.72C164.80,32.58 164.62,32.31 164.45,32.12C164.28,31.92 164.04,31.57 163.92,31.33C163.66,30.82 163.31,30.47 162.57,30.00C162.28,29.82 161.83,29.52 161.59,29.35L161.14,29.03L159.12,29.03L157.11,29.03L156.54,29.41C156.23,29.62 155.84,29.87 155.66,29.98C155.49,30.09 155.06,30.47 154.70,30.84L154.06,31.51L154.01,32.85C153.97,34.13 153.95,34.21 153.61,34.83L153.25,35.48L153.49,35.77C153.91,36.29 154.06,36.75 154.03,37.43C153.99,38.53 154.01,38.61 154.53,39.19C154.81,39.49 155.14,39.89 155.27,40.07C155.40,40.25 155.75,40.56 156.06,40.75C156.36,40.94 156.83,41.30 157.10,41.55L157.60,42.00L159.02,42.00L160.45,42.00L160.95,41.53ZM187.54,41.89C187.65,41.83 187.90,41.61 188.09,41.41C188.36,41.12 188.52,41.04 188.95,40.99C189.57,40.92 189.64,40.87 190.23,40.15C190.71,39.56 190.82,39.34 190.99,38.69C191.05,38.45 191.27,38.06 191.48,37.81C191.95,37.26 192.03,36.88 192.04,35.04C192.05,33.61 191.97,33.27 191.49,32.63C191.35,32.44 191.17,32.10 191.10,31.88C190.87,31.15 188.82,29.29 188.02,29.08C187.77,29.01 186.89,28.98 185.85,29.00L184.09,29.03L183.53,29.42C183.22,29.63 182.82,29.87 182.65,29.96C182.47,30.05 182.05,30.41 181.71,30.76C181.15,31.34 181.08,31.46 181.01,31.98C180.95,32.46 180.85,32.64 180.51,33.02C180.27,33.28 180.05,33.60 180.02,33.75C179.98,33.89 179.97,34.64 179.99,35.41L180.02,36.81L180.48,37.59C181.35,39.08 182.31,40.25 183.01,40.70C183.27,40.87 183.73,41.23 184.04,41.50L184.59,42.00L185.96,42.00C186.72,42.00 187.43,41.95 187.54,41.89ZM213.15,41.62C213.45,41.41 213.90,41.18 214.14,41.09C214.46,40.99 214.90,40.62 215.78,39.74L216.98,38.53L217.02,35.78C217.06,31.90 217.06,31.90 216.26,30.90C215.73,30.23 215.52,30.05 215.09,29.89C214.80,29.79 214.47,29.61 214.36,29.50C213.88,29.06 213.45,28.98 211.57,28.98C209.68,28.98 209.34,29.05 209.03,29.50C208.83,29.79 208.33,30.03 207.94,30.03C207.41,30.03 207.10,30.35 207.03,30.98C206.97,31.44 206.89,31.61 206.49,32.03L206.01,32.54L206.01,35.22C206.01,36.74 206.06,38.01 206.11,38.17C206.36,38.81 208.27,40.92 208.68,41.00C208.80,41.02 209.03,41.07 209.19,41.10C209.35,41.14 209.66,41.32 209.87,41.51C210.39,41.97 210.41,41.98 211.59,41.99C212.59,42.00 212.61,41.99 213.15,41.62ZM19.68,34.98C19.57,34.96 19.37,34.85 19.24,34.73C19.01,34.51 19.00,34.47 19.00,31.90C19.00,29.13 19.07,28.70 19.51,28.46C19.65,28.39 20.59,28.35 22.07,28.35C24.36,28.35 24.43,28.36 25.15,28.64L25.88,28.92L35.17,28.98C43.55,29.04 44.52,29.06 45.05,29.22C45.53,29.37 46.02,29.40 48.03,29.39L50.44,29.37L50.67,29.65C50.97,29.99 51.06,30.67 51.01,32.31C50.98,33.37 50.94,33.63 50.79,33.78C50.62,33.95 50.22,33.97 45.59,34.02L40.58,34.07L39.92,34.36L39.26,34.66L34.96,34.65C31.35,34.64 30.57,34.66 30.16,34.80C29.75,34.93 28.82,34.96 24.77,34.99C22.08,35.00 19.79,35.00 19.68,34.98ZM90.61,33.63C90.87,33.42 91.03,32.83 91.03,32.10C91.03,31.64 90.99,31.55 90.55,31.08C90.14,30.64 90.06,30.48 89.99,29.97C89.93,29.50 89.85,29.31 89.64,29.15C89.49,29.03 89.17,28.77 88.93,28.57C88.65,28.34 88.23,28.14 87.76,28.02C87.36,27.91 86.84,27.69 86.60,27.53C86.18,27.25 86.13,27.25 84.36,27.21L82.56,27.18L82.18,27.51C81.78,27.86 81.32,28.04 80.80,28.04C80.54,28.04 80.28,28.24 79.25,29.27C78.09,30.42 78.02,30.52 78.02,30.91C78.02,31.14 77.94,31.63 77.85,31.99C77.64,32.82 77.77,33.31 78.26,33.61C78.58,33.80 78.86,33.81 84.49,33.81C89.94,33.81 90.40,33.80 90.61,33.63ZM308.78,32.71C308.95,32.51 309.01,32.30 309.01,31.97C309.01,31.52 308.98,31.47 307.86,30.35C307.22,29.71 306.61,29.15 306.50,29.09C306.23,28.95 301.42,28.95 300.91,29.09C300.44,29.22 299.91,29.87 299.17,31.22C298.76,31.96 298.95,32.78 299.57,32.94C299.74,32.99 301.83,33.01 304.21,33.00L308.54,32.98L308.78,32.71ZM258.35,32.85C258.77,32.65 258.80,32.30 258.43,31.57C258.25,31.21 258.08,30.82 258.04,30.70C258.01,30.58 257.63,30.14 257.21,29.73L256.43,28.98L253.48,28.98L250.52,28.98L249.85,29.64C249.15,30.33 248.96,30.67 248.96,31.18C248.96,31.34 248.86,31.69 248.74,31.95C248.51,32.48 248.54,32.68 248.88,32.84C249.22,33.01 257.99,33.01 258.35,32.85ZM47.86,24.88C47.47,24.84 46.74,24.68 46.23,24.54C44.81,24.14 43.95,24.05 41.81,24.04C39.63,24.04 37.87,23.85 37.00,23.52C36.68,23.41 36.25,23.31 36.04,23.31C35.82,23.31 35.39,23.24 35.07,23.15C34.65,23.04 33.91,23.00 32.39,23.00C30.24,22.99 28.75,22.84 28.01,22.53C27.40,22.27 26.25,22.15 23.52,22.05C20.23,21.93 19.45,21.84 19.26,21.58C19.02,21.26 18.99,20.85 19.03,18.20C19.05,15.88 19.07,15.65 19.26,15.45C19.54,15.13 19.98,15.16 21.13,15.58C22.02,15.90 22.23,15.94 23.62,15.98C24.84,16.03 25.28,16.09 25.78,16.27C27.36,16.85 27.74,16.92 29.56,17.00C31.34,17.08 31.34,17.08 32.17,17.48L32.99,17.88L35.05,17.96C37.21,18.04 37.35,18.07 38.38,18.61C39.00,18.94 39.04,18.94 40.95,19.02C42.97,19.10 43.27,19.15 44.28,19.60C44.81,19.84 45.10,19.89 46.52,19.96C48.20,20.05 49.95,20.40 50.49,20.75C50.94,21.05 51.05,21.52 51.01,23.12C50.97,24.98 50.96,25.00 49.52,24.98C48.99,24.97 48.25,24.93 47.86,24.88Z"/>
</svg>
